<svg width="203" height="48" viewBox="0 0 203 48" fill="none" xmlns="http://www.w3.org/2000/svg">
<path d="M83.7412 30.1279C82.8879 30.1279 82.0719 29.9999 81.2933 29.7439C80.5146 29.4772 79.9013 29.1359 79.4532 28.7199L80.0452 27.4719C80.4719 27.8452 81.0159 28.1545 81.6772 28.3999C82.3386 28.6452 83.0266 28.7679 83.7412 28.7679C84.3919 28.7679 84.9199 28.6932 85.3252 28.5439C85.7306 28.3945 86.0293 28.1919 86.2213 27.9359C86.4132 27.6692 86.5092 27.3705 86.5092 27.0399C86.5092 26.6559 86.3812 26.3465 86.1253 26.1119C85.8799 25.8772 85.5546 25.6905 85.1492 25.5519C84.7546 25.4025 84.3173 25.2745 83.8372 25.1679C83.3572 25.0612 82.8719 24.9385 82.3812 24.7999C81.9012 24.6505 81.4586 24.4639 81.0533 24.2399C80.6586 24.0159 80.3386 23.7172 80.0932 23.3439C79.8479 22.9599 79.7253 22.4692 79.7253 21.8719C79.7253 21.2959 79.8746 20.7679 80.1732 20.2879C80.4826 19.7972 80.9519 19.4079 81.5813 19.1199C82.2213 18.8212 83.0319 18.6719 84.0132 18.6719C84.6639 18.6719 85.3092 18.7572 85.9492 18.9279C86.5892 19.0985 87.1439 19.3439 87.6133 19.6639L87.0853 20.9439C86.6052 20.6239 86.0986 20.3945 85.5652 20.2559C85.0319 20.1065 84.5146 20.0319 84.0132 20.0319C83.3839 20.0319 82.8666 20.1119 82.4613 20.2719C82.0559 20.4319 81.7572 20.6452 81.5652 20.9119C81.3839 21.1785 81.2933 21.4772 81.2933 21.8079C81.2933 22.2025 81.4159 22.5172 81.6613 22.7519C81.9173 22.9865 82.2426 23.1732 82.6373 23.3119C83.0426 23.4505 83.4853 23.5785 83.9653 23.6959C84.4453 23.8025 84.9252 23.9252 85.4053 24.0639C85.8959 24.2025 86.3386 24.3839 86.7332 24.6079C87.1386 24.8319 87.4639 25.1305 87.7093 25.5039C87.9546 25.8772 88.0773 26.3572 88.0773 26.9439C88.0773 27.5092 87.9226 28.0372 87.6133 28.5279C87.3039 29.0079 86.8239 29.3972 86.1732 29.6959C85.5332 29.9839 84.7226 30.1279 83.7412 30.1279Z" fill="url(#paint0_linear_667_28)"/>
<path d="M45.9124 29.9999L40.9844 18.7999H42.7124L46.7461 28.0077L50.8084 18.7999H52.4084L47.4964 29.9999H45.9124Z" fill="url(#paint1_linear_667_28)"/>
<path d="M55.4366 28.6079V24.9919H61.0526V23.6319H55.4366V20.1919H61.7406V18.7999H53.8366V29.9999H61.9646V28.6079H55.4366Z" fill="url(#paint2_linear_667_28)"/>
<path fill-rule="evenodd" clip-rule="evenodd" d="M64.5554 18.7999V29.9999H66.1554V26.5919H68.9234C69.1695 26.5919 69.4066 26.5821 69.6346 26.5627L72.0434 29.9999H73.7874L71.1304 26.2506C71.235 26.2128 71.3366 26.1719 71.4354 26.1279C72.1287 25.8185 72.662 25.3759 73.0354 24.7999C73.4087 24.2132 73.5954 23.5145 73.5954 22.7039C73.5954 21.8932 73.4087 21.1945 73.0354 20.6079C72.662 20.0212 72.1287 19.5732 71.4354 19.2639C70.742 18.9545 69.9047 18.7999 68.9234 18.7999H64.5554ZM66.1554 25.2319H68.8754C69.8994 25.2319 70.6727 25.0132 71.1954 24.5759C71.7287 24.1279 71.9954 23.5039 71.9954 22.7039C71.9954 21.9039 71.7287 21.2852 71.1954 20.8479C70.6727 20.4105 69.8994 20.1919 68.8754 20.1919H66.1554V25.2319Z" fill="url(#paint3_linear_667_28)"/>
<path d="M92.0148 24.9919V28.6079H98.5428V29.9999H90.4147V18.7999H98.3188V20.1919H92.0148V23.6319H97.6308V24.9919H92.0148Z" fill="url(#paint4_linear_667_28)"/>
<path fill-rule="evenodd" clip-rule="evenodd" d="M101.133 29.9999V18.7999H105.502C106.483 18.7999 107.32 18.9545 108.014 19.2639C108.707 19.5732 109.24 20.0212 109.614 20.6079C109.987 21.1945 110.174 21.8932 110.174 22.7039C110.174 23.5145 109.987 24.2132 109.614 24.7999C109.24 25.3759 108.707 25.8185 108.014 26.1279C107.915 26.1719 107.813 26.2128 107.709 26.2506L110.366 29.9999H108.621L106.213 26.5627C105.985 26.5821 105.748 26.5919 105.502 26.5919H102.734V29.9999H101.133ZM105.453 25.2319H102.734V20.1919H105.453C106.478 20.1919 107.251 20.4105 107.773 20.8479C108.307 21.2852 108.574 21.9039 108.574 22.7039C108.574 23.5039 108.307 24.1279 107.773 24.5759C107.251 25.0132 106.478 25.2319 105.453 25.2319Z" fill="url(#paint5_linear_667_28)"/>
<path d="M111.062 18.7999L115.991 29.9999H117.575L122.487 18.7999H120.886L116.824 28.0077L112.79 18.7999H111.062Z" fill="url(#paint6_linear_667_28)"/>
<path d="M123.915 29.9999V18.7999H125.515V29.9999H123.915Z" fill="url(#paint7_linear_667_28)"/>
<path d="M133.12 30.0899C132.552 30.0315 132.014 29.9055 131.508 29.7119C130.793 29.4239 130.169 29.0239 129.636 28.5119C129.113 27.9892 128.703 27.3812 128.404 26.6879C128.105 25.9945 127.956 25.2319 127.956 24.3999C127.956 23.5679 128.105 22.8052 128.404 22.1119C128.703 21.4185 129.119 20.8159 129.652 20.3039C130.185 19.7812 130.809 19.3812 131.524 19.1039C132.249 18.8159 133.039 18.6719 133.892 18.6719C134.756 18.6719 135.551 18.8212 136.276 19.1199C137.012 19.4079 137.636 19.8399 138.148 20.4159L137.108 21.4239C136.681 20.9759 136.201 20.6452 135.668 20.4319C135.135 20.2079 134.564 20.0959 133.956 20.0959C133.327 20.0959 132.74 20.2025 132.196 20.4159C131.663 20.6292 131.199 20.9279 130.804 21.3119C130.409 21.6959 130.1 22.1545 129.876 22.6879C129.663 23.2105 129.556 23.7812 129.556 24.3999C129.556 25.0185 129.663 25.5945 129.876 26.1279C130.1 26.6505 130.409 27.1039 130.804 27.4879C131.199 27.8719 131.663 28.1705 132.196 28.3839C132.74 28.5972 133.327 28.7039 133.956 28.7039C134.564 28.7039 135.135 28.5972 135.668 28.3839C136.201 28.1599 136.681 27.8185 137.108 27.3599L138.148 28.3679C137.636 28.9439 137.012 29.3812 136.276 29.6799C135.582 29.9656 134.82 30.1147 133.989 30.127L133.812 30.7999C134.271 30.8425 134.617 30.9865 134.852 31.2319C135.087 31.4772 135.204 31.7759 135.204 32.1279C135.204 32.5759 135.023 32.9279 134.66 33.1839C134.297 33.4505 133.817 33.5839 133.22 33.5839C132.943 33.5839 132.687 33.5519 132.452 33.4879C132.217 33.4345 131.999 33.3492 131.796 33.2319L132.132 32.4479C132.303 32.5439 132.473 32.6132 132.644 32.6559C132.825 32.6985 133.017 32.7199 133.22 32.7199C133.529 32.7199 133.753 32.6612 133.892 32.5439C134.041 32.4372 134.116 32.2825 134.116 32.0799C134.116 31.8879 134.041 31.7332 133.892 31.6159C133.753 31.5092 133.524 31.4559 133.204 31.4559H132.772L133.12 30.0899Z" fill="url(#paint8_linear_667_28)"/>
<path fill-rule="evenodd" clip-rule="evenodd" d="M145.252 30.1279C144.399 30.1279 143.604 29.9839 142.868 29.6959C142.143 29.4079 141.513 29.0079 140.98 28.4959C140.447 27.9732 140.031 27.3652 139.732 26.6719C139.433 25.9785 139.284 25.2212 139.284 24.3999C139.284 23.5785 139.433 22.8212 139.732 22.1279C140.031 21.4345 140.447 20.8319 140.98 20.3199C141.513 19.7972 142.143 19.3919 142.868 19.1039C143.593 18.8159 144.388 18.6719 145.252 18.6719C146.105 18.6719 146.889 18.8159 147.604 19.1039C148.329 19.3812 148.959 19.7812 149.492 20.3039C150.036 20.8159 150.452 21.4185 150.74 22.1119C151.039 22.8052 151.188 23.5679 151.188 24.3999C151.188 25.2319 151.039 25.9945 150.74 26.6879C150.452 27.3812 150.036 27.9892 149.492 28.5119C148.959 29.0239 148.329 29.4239 147.604 29.7119C146.889 29.9892 146.105 30.1279 145.252 30.1279ZM145.252 28.7039C145.871 28.7039 146.441 28.5972 146.964 28.3839C147.497 28.1705 147.956 27.8719 148.34 27.4879C148.735 27.0932 149.039 26.6345 149.252 26.1119C149.476 25.5892 149.588 25.0185 149.588 24.3999C149.588 23.7812 149.476 23.2105 149.252 22.6879C149.039 22.1652 148.735 21.7119 148.34 21.3279C147.956 20.9332 147.497 20.6292 146.964 20.4159C146.441 20.2025 145.871 20.0959 145.252 20.0959C144.623 20.0959 144.041 20.2025 143.508 20.4159C142.985 20.6292 142.527 20.9332 142.132 21.3279C141.737 21.7119 141.428 22.1652 141.204 22.6879C140.991 23.2105 140.884 23.7812 140.884 24.3999C140.884 25.0185 140.991 25.5892 141.204 26.1119C141.428 26.6345 141.737 27.0932 142.132 27.4879C142.527 27.8719 142.985 28.1705 143.508 28.3839C144.041 28.5972 144.623 28.7039 145.252 28.7039Z" fill="url(#paint9_linear_667_28)"/>
<path d="M154.449 29.7439C155.228 29.9999 156.044 30.1279 156.897 30.1279C157.879 30.1279 158.689 29.9839 159.329 29.6959C159.98 29.3972 160.46 29.0079 160.77 28.5279C161.079 28.0372 161.233 27.5092 161.233 26.9439C161.233 26.3572 161.111 25.8772 160.866 25.5039C160.62 25.1305 160.295 24.8319 159.889 24.6079C159.495 24.3839 159.052 24.2025 158.561 24.0639C158.081 23.9252 157.602 23.8025 157.121 23.6959C156.641 23.5785 156.199 23.4505 155.794 23.3119C155.399 23.1732 155.074 22.9865 154.818 22.7519C154.572 22.5172 154.449 22.2025 154.449 21.8079C154.449 21.4772 154.54 21.1785 154.721 20.9119C154.913 20.6452 155.212 20.4319 155.617 20.2719C156.023 20.1119 156.54 20.0319 157.169 20.0319C157.671 20.0319 158.188 20.1065 158.721 20.2559C159.255 20.3945 159.762 20.6239 160.242 20.9439L160.77 19.6639C160.3 19.3439 159.745 19.0985 159.105 18.9279C158.465 18.7572 157.82 18.6719 157.169 18.6719C156.188 18.6719 155.378 18.8212 154.738 19.1199C154.108 19.4079 153.639 19.7972 153.329 20.2879C153.031 20.7679 152.882 21.2959 152.882 21.8719C152.882 22.4692 153.004 22.9599 153.249 23.3439C153.495 23.7172 153.815 24.0159 154.21 24.2399C154.615 24.4639 155.057 24.6505 155.538 24.7999C156.028 24.9385 156.514 25.0612 156.993 25.1679C157.473 25.2745 157.911 25.4025 158.306 25.5519C158.711 25.6905 159.036 25.8772 159.281 26.1119C159.538 26.3465 159.665 26.6559 159.665 27.0399C159.665 27.3705 159.57 27.6692 159.378 27.9359C159.186 28.1919 158.887 28.3945 158.482 28.5439C158.076 28.6932 157.548 28.7679 156.897 28.7679C156.183 28.7679 155.495 28.6452 154.833 28.3999C154.172 28.1545 153.628 27.8452 153.202 27.4719L152.609 28.7199C153.057 29.1359 153.671 29.4772 154.449 29.7439Z" fill="url(#paint10_linear_667_28)"/>
<path fill-rule="evenodd" clip-rule="evenodd" d="M0 10C0 4.47715 4.47715 0 10 0H193C198.523 0 203 4.47715 203 10V38C203 43.5228 198.523 48 193 48H10C4.47715 48 0 43.5228 0 38V10ZM10 1H193C197.971 1 202 5.02944 202 10V38C202 42.9706 197.971 47 193 47H10C5.02944 47 1 42.9706 1 38V10C1 5.02944 5.02944 1 10 1Z" fill="url(#paint11_linear_667_28)"/>
<path d="M177.244 31.7241C177.568 32.092 178.095 32.092 178.42 31.7241L183.946 25.4653C184.92 24.362 184.92 22.5734 183.946 21.4696L178.482 15.2759C178.157 14.908 177.631 14.908 177.306 15.2759C176.981 15.6438 176.981 16.2402 177.306 16.608L182.772 22.7986C183.096 23.1665 183.096 23.7629 182.772 24.1307L177.244 30.3919C176.919 30.7598 176.919 31.3562 177.244 31.7241Z" fill="url(#paint12_linear_667_28)"/>
<defs>
<linearGradient id="paint0_linear_667_28" x1="-3.78117e-07" y1="24" x2="203" y2="24" gradientUnits="userSpaceOnUse">
<stop stop-color="#F77D01"/>
<stop offset="1" stop-color="#FEBE16"/>
</linearGradient>
<linearGradient id="paint1_linear_667_28" x1="-3.78117e-07" y1="24" x2="203" y2="24" gradientUnits="userSpaceOnUse">
<stop stop-color="#F77D01"/>
<stop offset="1" stop-color="#FEBE16"/>
</linearGradient>
<linearGradient id="paint2_linear_667_28" x1="-3.78117e-07" y1="24" x2="203" y2="24" gradientUnits="userSpaceOnUse">
<stop stop-color="#F77D01"/>
<stop offset="1" stop-color="#FEBE16"/>
</linearGradient>
<linearGradient id="paint3_linear_667_28" x1="-3.78117e-07" y1="24" x2="203" y2="24" gradientUnits="userSpaceOnUse">
<stop stop-color="#F77D01"/>
<stop offset="1" stop-color="#FEBE16"/>
</linearGradient>
<linearGradient id="paint4_linear_667_28" x1="-3.78117e-07" y1="24" x2="203" y2="24" gradientUnits="userSpaceOnUse">
<stop stop-color="#F77D01"/>
<stop offset="1" stop-color="#FEBE16"/>
</linearGradient>
<linearGradient id="paint5_linear_667_28" x1="-3.78117e-07" y1="24" x2="203" y2="24" gradientUnits="userSpaceOnUse">
<stop stop-color="#F77D01"/>
<stop offset="1" stop-color="#FEBE16"/>
</linearGradient>
<linearGradient id="paint6_linear_667_28" x1="-3.78117e-07" y1="24" x2="203" y2="24" gradientUnits="userSpaceOnUse">
<stop stop-color="#F77D01"/>
<stop offset="1" stop-color="#FEBE16"/>
</linearGradient>
<linearGradient id="paint7_linear_667_28" x1="-3.78117e-07" y1="24" x2="203" y2="24" gradientUnits="userSpaceOnUse">
<stop stop-color="#F77D01"/>
<stop offset="1" stop-color="#FEBE16"/>
</linearGradient>
<linearGradient id="paint8_linear_667_28" x1="-3.78117e-07" y1="24" x2="203" y2="24" gradientUnits="userSpaceOnUse">
<stop stop-color="#F77D01"/>
<stop offset="1" stop-color="#FEBE16"/>
</linearGradient>
<linearGradient id="paint9_linear_667_28" x1="-3.78117e-07" y1="24" x2="203" y2="24" gradientUnits="userSpaceOnUse">
<stop stop-color="#F77D01"/>
<stop offset="1" stop-color="#FEBE16"/>
</linearGradient>
<linearGradient id="paint10_linear_667_28" x1="-3.78117e-07" y1="24" x2="203" y2="24" gradientUnits="userSpaceOnUse">
<stop stop-color="#F77D01"/>
<stop offset="1" stop-color="#FEBE16"/>
</linearGradient>
<linearGradient id="paint11_linear_667_28" x1="-3.78117e-07" y1="24" x2="203" y2="24" gradientUnits="userSpaceOnUse">
<stop stop-color="#F77D01"/>
<stop offset="1" stop-color="#FEBE16"/>
</linearGradient>
<linearGradient id="paint12_linear_667_28" x1="-3.78117e-07" y1="24" x2="203" y2="24" gradientUnits="userSpaceOnUse">
<stop stop-color="#F77D01"/>
<stop offset="1" stop-color="#FEBE16"/>
</linearGradient>
</defs>
</svg>
