<svg width="60" height="73" viewBox="0 0 60 73" fill="none" xmlns="http://www.w3.org/2000/svg">
<path d="M30 27V57.5V27ZM30 57.5L20 47.5L30 57.5ZM30 57.5L40 47.5L30 57.5Z" fill="url(#paint0_linear_566_3935)"/>
<path d="M30 27V57.5M30 57.5L20 47.5M30 57.5L40 47.5" stroke="url(#paint1_linear_566_3935)" stroke-width="4" stroke-linecap="round" stroke-linejoin="round"/>
<path fill-rule="evenodd" clip-rule="evenodd" d="M30 4C31.1046 4 32 3.10457 32 2C32 0.895431 31.1046 0 30 0C28.8954 0 28 0.895431 28 2C28 3.10457 28.8954 4 30 4ZM30 8C28.8954 8 28 8.89543 28 10V17C28 18.1046 28.8954 19 30 19C31.1046 19 32 18.1046 32 17V10C32 8.89543 31.1046 8 30 8Z" fill="url(#paint2_linear_566_3935)"/>
<defs>
<linearGradient id="paint0_linear_566_3935" x1="30" y1="27" x2="30" y2="57.5" gradientUnits="userSpaceOnUse">
<stop stop-color="#F57D00"/>
<stop offset="1" stop-color="#FEC201"/>
</linearGradient>
<linearGradient id="paint1_linear_566_3935" x1="30" y1="27" x2="30" y2="57.5" gradientUnits="userSpaceOnUse">
<stop stop-color="#F57D00"/>
<stop offset="1" stop-color="#FEC201"/>
</linearGradient>
<linearGradient id="paint2_linear_566_3935" x1="30" y1="0" x2="30" y2="19" gradientUnits="userSpaceOnUse">
<stop stop-color="#F57D00"/>
<stop offset="1" stop-color="#FEC201"/>
</linearGradient>
</defs>
</svg>
