<svg width="1941" height="699" viewBox="0 0 1941 699" fill="none" xmlns="http://www.w3.org/2000/svg">
<rect width="1941" height="698.999" fill="#353535"/>
<path fill-rule="evenodd" clip-rule="evenodd" d="M847.529 456.209V50H989.223L991.49 330.236L1109.14 329.939L1110.33 456.167L847.529 456.209ZM445.794 456.46L447.535 50H590.645V195.44H684.057V50H819.432L821.581 456.209H684.057V305.405H590.645V456.46H445.794ZM50 50H190.776L238.804 277.275L250.317 277.568L307.267 50H447.535L345.522 456.46H150.048L50 50Z" fill="url(#paint0_linear_1601_4)"/>
<path d="M240.717 493.334H258.533L259.367 596.701C259.367 606.758 256.996 615.738 252.255 623.64C247.562 631.495 240.929 637.697 232.356 642.247C223.783 646.749 213.726 648.999 202.184 648.999C190.641 648.999 180.584 646.749 172.011 642.247C163.439 637.697 156.782 631.495 152.04 623.64C147.347 615.738 145 606.758 145 596.701L144.166 493.334H161.982L162.816 595.264C162.816 602.448 164.396 608.842 167.557 614.445C170.718 620.001 175.22 624.383 181.063 627.592C186.954 630.752 193.994 632.333 202.184 632.333C210.373 632.333 217.413 630.752 223.304 627.592C229.195 624.383 233.697 620.001 236.81 614.445C239.971 608.842 241.551 602.448 241.551 595.264L240.717 493.334Z" fill="#F57D00"/>
<path d="M482.984 500.93V648.999H465.633L384.946 532.742H383.5V648.999H365.57V500.93H382.922L463.897 617.477H465.343V500.93H482.984Z" fill="#F57D00"/>
<path d="M600 503.786V647.732H582.569V503.786H600Z" fill="#F57D00"/>
<path d="M693.5 647.732V500.922H781.528V516.693H711.278V566.298H774.933V582.069H711.278V647.732H693.5Z" fill="#F57D00"/>
<path d="M1003 573.968C1003 589.113 1000.27 602.202 994.796 613.234C989.327 624.266 981.825 632.773 972.289 638.757C962.753 644.74 951.861 647.732 939.614 647.732C927.367 647.732 916.475 644.74 906.939 638.757C897.403 632.773 889.9 624.266 884.431 613.234C878.962 602.202 876.228 589.113 876.228 573.968C876.228 558.823 878.962 545.734 884.431 534.702C889.9 523.67 897.403 515.163 906.939 509.179C916.475 503.196 927.367 500.204 939.614 500.204C951.861 500.204 962.753 503.196 972.289 509.179C981.825 515.163 989.327 523.67 994.796 534.702C1000.27 545.734 1003 558.823 1003 573.968ZM986.172 573.968C986.172 561.534 984.092 551.04 979.931 542.485C975.818 533.931 970.232 527.457 963.173 523.063C956.162 518.669 948.308 516.472 939.614 516.472C930.919 516.472 923.043 518.669 915.984 523.063C908.972 527.457 903.386 533.931 899.226 542.485C895.113 551.04 893.056 561.534 893.056 573.968C893.056 586.402 895.113 596.896 899.226 605.451C903.386 614.005 908.972 620.479 915.984 624.873C923.043 629.267 930.919 631.464 939.614 631.464C948.308 631.464 956.162 629.267 963.173 624.873C970.232 620.479 975.818 614.005 979.931 605.451C984.092 596.896 986.172 586.402 986.172 573.968Z" fill="#F57D00"/>
<path d="M1105.49 647.732V506.82H1153.11C1164.12 506.82 1173.15 508.7 1180.22 512.462C1187.28 516.177 1192.51 521.292 1195.9 527.805C1199.3 534.319 1201 541.726 1201 550.029C1201 558.331 1199.3 565.693 1195.9 572.115C1192.51 578.537 1187.3 583.583 1180.29 587.252C1173.27 590.876 1164.3 592.688 1153.38 592.688H1114.85V577.276H1152.83C1160.35 577.276 1166.41 576.175 1171 573.973C1175.63 571.771 1178.98 568.652 1181.04 564.616C1183.15 560.533 1184.21 555.671 1184.21 550.029C1184.21 544.387 1183.15 539.456 1181.04 535.236C1178.93 531.016 1175.56 527.759 1170.93 525.466C1166.3 523.126 1160.17 521.957 1152.56 521.957H1122.56V647.732H1105.49ZM1171.82 584.431L1206.5 647.732H1186.68L1152.56 584.431H1171.82Z" fill="#F57D00"/>
<path d="M1313.06 503.981H1333.83L1382.69 623.305H1384.37L1433.22 503.981H1454V647.732H1437.72V538.515H1436.31L1391.39 647.732H1375.67L1330.75 538.515H1329.34V647.732H1313.06V503.981Z" fill="#F57D00"/>
<path d="M1570.5 647.732V507.847H1654.92V522.874H1587.44V570.139H1650.55V585.166H1587.44V632.705H1656.02V647.732H1570.5Z" fill="#F57D00"/>
<path d="M1852.62 532.811C1851.74 525.403 1848.18 519.652 1841.95 515.558C1835.71 511.464 1828.06 509.417 1818.99 509.417C1812.36 509.417 1806.56 510.489 1801.59 512.634C1796.67 514.778 1792.82 517.727 1790.04 521.479C1787.31 525.232 1785.95 529.497 1785.95 534.273C1785.95 538.269 1786.9 541.705 1788.8 544.581C1790.75 547.407 1793.23 549.771 1796.25 551.672C1799.28 553.524 1802.44 555.059 1805.76 556.277C1809.07 557.447 1812.12 558.397 1814.9 559.128L1830.1 563.222C1834 564.246 1838.34 565.659 1843.11 567.462C1847.94 569.266 1852.55 571.727 1856.93 574.846C1861.37 577.916 1865.02 581.864 1867.9 586.689C1870.77 591.514 1872.21 597.435 1872.21 604.453C1872.21 612.544 1870.09 619.854 1865.85 626.385C1861.66 632.916 1855.52 638.106 1847.43 641.956C1839.39 645.806 1829.62 647.732 1818.11 647.732C1807.39 647.732 1798.11 646.001 1790.26 642.541C1782.46 639.081 1776.32 634.256 1771.84 628.066C1767.4 621.877 1764.89 614.688 1764.31 606.5H1783.02C1783.51 612.154 1785.41 616.833 1788.72 620.537C1792.09 624.192 1796.33 626.921 1801.45 628.724C1806.61 630.479 1812.17 631.356 1818.11 631.356C1825.03 631.356 1831.25 630.235 1836.75 627.993C1842.26 625.703 1846.62 622.535 1849.84 618.49C1853.06 614.396 1854.67 609.62 1854.67 604.161C1854.67 599.19 1853.28 595.145 1850.5 592.026C1847.72 588.906 1844.07 586.372 1839.53 584.423C1835 582.473 1830.1 580.767 1824.84 579.305L1806.42 574.042C1794.72 570.679 1785.46 565.878 1778.64 559.64C1771.81 553.402 1768.4 545.238 1768.4 535.15C1768.4 526.767 1770.67 519.457 1775.2 513.219C1779.78 506.931 1785.92 502.058 1793.62 498.598C1801.37 495.089 1810.02 493.334 1819.58 493.334C1829.23 493.334 1837.8 495.064 1845.31 498.524C1852.81 501.936 1858.76 506.615 1863.15 512.561C1867.58 518.506 1869.92 525.256 1870.16 532.811H1852.62Z" fill="#F57D00"/>
<defs>
<linearGradient id="paint0_linear_1601_4" x1="51.1827" y1="253.778" x2="1111.51" y2="253.778" gradientUnits="userSpaceOnUse">
<stop stop-color="#F57D00"/>
<stop offset="1" stop-color="#F69C00"/>
</linearGradient>
</defs>
</svg>
