<svg width="333" height="40" viewBox="0 0 333 40" fill="none" xmlns="http://www.w3.org/2000/svg">
<path d="M5.52784 39.5575L0 8.58407H4.48928L9.41408 36.5929H6.63341L20.2017 8.58407H24.7245L9.8161 39.5575H5.52784Z" fill="url(#paint0_linear_626_60)"/>
<path d="M20.1483 39.5575L35.3918 8.58407H39.7136L45.5429 39.5575H41.2211L36.3298 11.5487H38.072L24.8051 39.5575H20.1483ZM26.1117 32.3894L27.9543 27.8761H40.5846L41.1541 32.3894H26.1117Z" fill="url(#paint1_linear_626_60)"/>
<path d="M50.234 39.5575L54.9243 8.58407H58.4755L65.3099 31.2832L63.4673 31.2389L76.8346 8.58407H80.5869L75.8966 39.5575H71.7758L75.1595 16.9911L76.1311 17.0354L64.8074 36.0177H62.8643L56.9344 16.9911L57.7719 17.1239L54.3882 39.5575H50.234Z" fill="url(#paint2_linear_626_60)"/>
<path d="M95.6319 40C93.2644 40 91.2431 39.4395 89.568 38.3186C87.8929 37.1976 86.6087 35.649 85.7153 33.6726C84.8442 31.6667 84.4087 29.3658 84.4087 26.7699C84.4087 24.1445 84.7437 21.7109 85.4138 19.469C86.0838 17.1976 87.0554 15.2212 88.3284 13.5398C89.6015 11.8584 91.1203 10.5457 92.8847 9.60177C94.6492 8.62832 96.6146 8.14159 98.7811 8.14159C101.126 8.14159 103.136 8.70206 104.811 9.82301C106.487 10.944 107.771 12.5074 108.664 14.5133C109.558 16.4897 110.004 18.7758 110.004 21.3717C110.004 23.997 109.658 26.4454 108.966 28.7168C108.296 30.9587 107.324 32.9204 106.051 34.6018C104.778 36.2832 103.259 37.6106 101.495 38.5841C99.7527 39.528 97.7984 40 95.6319 40ZM96.0004 34.9558C97.4745 34.9558 98.8034 34.6165 99.9872 33.9381C101.171 33.2301 102.176 32.2714 103.002 31.0619C103.851 29.823 104.499 28.4071 104.945 26.8142C105.392 25.1917 105.616 23.4956 105.616 21.7257C105.616 20.0442 105.336 18.5546 104.778 17.2566C104.22 15.9587 103.404 14.9558 102.332 14.2478C101.26 13.5398 99.9425 13.1858 98.3791 13.1858C96.9273 13.1858 95.5984 13.5398 94.3923 14.2478C93.2086 14.9263 92.1924 15.885 91.3436 17.1239C90.5173 18.3333 89.8807 19.7493 89.434 21.3717C89.0097 22.9646 88.7975 24.646 88.7975 26.4159C88.7975 28.0973 89.0655 29.587 89.6015 30.885C90.1599 32.1829 90.9751 33.1858 92.0472 33.8938C93.1192 34.6018 94.437 34.9558 96.0004 34.9558Z" fill="url(#paint3_linear_626_60)"/>
<path d="M121.455 40C120.227 40 119.032 39.8378 117.87 39.5133C116.731 39.1888 115.682 38.7611 114.721 38.2301C113.783 37.6696 113.001 37.0501 112.376 36.3717L114.219 31.8584C114.866 32.5664 115.603 33.1711 116.43 33.6726C117.256 34.174 118.127 34.5575 119.043 34.823C119.981 35.0885 120.919 35.2212 121.857 35.2212C122.996 35.2212 123.99 35.0442 124.839 34.6903C125.688 34.3363 126.335 33.8348 126.782 33.1858C127.251 32.5369 127.486 31.7552 127.486 30.8407C127.486 30.0147 127.273 29.351 126.849 28.8496C126.425 28.3186 125.855 27.8909 125.14 27.5664C124.448 27.2124 123.677 26.8879 122.829 26.5929C122.002 26.2684 121.165 25.9145 120.316 25.531C119.467 25.118 118.697 24.6165 118.004 24.0266C117.312 23.4071 116.743 22.6254 116.296 21.6814C115.871 20.7375 115.659 19.5575 115.659 18.1416C115.659 16.1062 116.084 14.351 116.932 12.8761C117.803 11.3717 118.998 10.2065 120.517 9.38053C122.058 8.55457 123.845 8.14159 125.877 8.14159C127.396 8.14159 128.837 8.36283 130.199 8.80531C131.562 9.24779 132.734 9.89676 133.717 10.7522L132.008 15.3097C131.137 14.5428 130.155 13.9528 129.06 13.5398C127.966 13.1268 126.827 12.9204 125.643 12.9204C124.482 12.9204 123.476 13.1121 122.628 13.4956C121.779 13.8791 121.131 14.41 120.685 15.0885C120.238 15.767 120.003 16.5634 119.981 17.4779C119.981 18.3333 120.193 19.0265 120.618 19.5575C121.042 20.059 121.6 20.4867 122.293 20.8407C122.985 21.1947 123.756 21.5339 124.604 21.8584C125.453 22.1534 126.291 22.4926 127.117 22.8761C127.966 23.2596 128.747 23.7463 129.462 24.3363C130.177 24.9263 130.746 25.6785 131.171 26.5929C131.595 27.4779 131.807 28.5988 131.807 29.9558C131.807 31.9911 131.372 33.7611 130.501 35.2655C129.652 36.7699 128.446 37.9351 126.883 38.7611C125.341 39.587 123.532 40 121.455 40Z" fill="url(#paint4_linear_626_60)"/>
<path d="M144.145 39.5575L159.389 8.58407H163.71L169.54 39.5575H165.218L160.327 11.5487H162.069L148.802 39.5575H144.145ZM150.109 32.3894L151.951 27.8761H164.581L165.151 32.3894H150.109Z" fill="url(#paint5_linear_626_60)"/>
<path d="M177.81 39.5575L181.764 13.4513H173.991L174.728 8.58407H194.595L193.858 13.4513H186.085L182.166 39.5575H177.81Z" fill="url(#paint6_linear_626_60)"/>
<path d="M201.616 21.4602H213.308L212.604 26.1947H200.912L201.616 21.4602ZM199.941 34.7345H213.207L212.47 39.5575H194.882L199.572 8.58407H216.692L215.955 13.4071H203.157L199.941 34.7345ZM205.636 6.06195L210.695 0H215.72L209.388 6.06195H205.636Z" fill="url(#paint7_linear_626_60)"/>
<path d="M236.836 39.5575L231.308 8.58407H235.797L240.722 36.5929H237.942L251.51 8.58407H256.033L241.124 39.5575H236.836Z" fill="url(#paint8_linear_626_60)"/>
<path d="M267.022 40C264.655 40 262.634 39.4395 260.959 38.3186C259.283 37.1976 257.999 35.649 257.106 33.6726C256.235 31.6667 255.799 29.3658 255.799 26.7699C255.799 24.1445 256.134 21.7109 256.804 19.469C257.474 17.1976 258.446 15.2212 259.719 13.5398C260.992 11.8584 262.511 10.5457 264.275 9.60177C266.04 8.62832 268.005 8.14159 270.172 8.14159C272.517 8.14159 274.527 8.70206 276.202 9.82301C277.877 10.944 279.161 12.5074 280.055 14.5133C280.948 16.4897 281.395 18.7758 281.395 21.3717C281.395 23.997 281.049 26.4454 280.356 28.7168C279.686 30.9587 278.715 32.9204 277.442 34.6018C276.168 36.2832 274.65 37.6106 272.885 38.5841C271.143 39.528 269.189 40 267.022 40ZM267.391 34.9558C268.865 34.9558 270.194 34.6165 271.378 33.9381C272.561 33.2301 273.566 32.2714 274.393 31.0619C275.242 29.823 275.889 28.4071 276.336 26.8142C276.783 25.1917 277.006 23.4956 277.006 21.7257C277.006 20.0442 276.727 18.5546 276.168 17.2566C275.61 15.9587 274.795 14.9558 273.723 14.2478C272.651 13.5398 271.333 13.1858 269.77 13.1858C268.318 13.1858 266.989 13.5398 265.783 14.2478C264.599 14.9263 263.583 15.885 262.734 17.1239C261.908 18.3333 261.271 19.7493 260.825 21.3717C260.4 22.9646 260.188 24.646 260.188 26.4159C260.188 28.0973 260.456 29.587 260.992 30.885C261.55 32.1829 262.366 33.1858 263.438 33.8938C264.51 34.6018 265.827 34.9558 267.391 34.9558Z" fill="url(#paint9_linear_626_60)"/>
<path d="M297.067 40C294.677 40 292.634 39.4395 290.936 38.3186C289.239 37.1976 287.932 35.649 287.016 33.6726C286.123 31.6667 285.676 29.3658 285.676 26.7699C285.676 24.1445 286.011 21.7109 286.681 19.469C287.374 17.1976 288.356 15.2212 289.63 13.5398C290.903 11.8584 292.421 10.5457 294.186 9.60177C295.95 8.62832 297.927 8.14159 300.116 8.14159C302.148 8.14159 303.935 8.58407 305.476 9.46903C307.017 10.354 308.201 11.6372 309.027 13.3186L305.878 16.8142C305.23 15.6342 304.404 14.7345 303.399 14.115C302.394 13.4956 301.199 13.1858 299.814 13.1858C298.318 13.1858 296.966 13.5251 295.76 14.2035C294.554 14.882 293.527 15.8407 292.678 17.0796C291.829 18.2891 291.182 19.705 290.735 21.3274C290.288 22.9204 290.065 24.6165 290.065 26.4159C290.065 28.0973 290.344 29.587 290.903 30.885C291.461 32.1829 292.287 33.1858 293.382 33.8938C294.476 34.6018 295.816 34.9558 297.402 34.9558C298.72 34.9558 299.937 34.6608 301.054 34.0708C302.193 33.4808 303.198 32.5811 304.069 31.3717L306.615 35C305.476 36.7109 304.08 37.9794 302.427 38.8053C300.797 39.6018 299.01 40 297.067 40Z" fill="url(#paint10_linear_626_60)"/>
<path d="M317.924 21.4602H329.616L328.913 26.1947H317.221L317.924 21.4602ZM316.249 34.7345H329.516L328.779 39.5575H311.19L315.88 8.58407H333L332.263 13.4071H319.465L316.249 34.7345ZM318.46 6.06195L323.519 0H327.338L331.224 6.06195H327.874L323.753 0.973452H327.003L321.978 6.06195H318.46Z" fill="url(#paint11_linear_626_60)"/>
<defs>
<linearGradient id="paint0_linear_626_60" x1="-2.74731" y1="23.5793" x2="332.273" y2="23.5793" gradientUnits="userSpaceOnUse">
<stop stop-color="#F67F01"/>
<stop offset="1" stop-color="#FDBB16"/>
</linearGradient>
<linearGradient id="paint1_linear_626_60" x1="-2.74731" y1="23.5793" x2="332.273" y2="23.5793" gradientUnits="userSpaceOnUse">
<stop stop-color="#F67F01"/>
<stop offset="1" stop-color="#FDBB16"/>
</linearGradient>
<linearGradient id="paint2_linear_626_60" x1="-2.74731" y1="23.5793" x2="332.273" y2="23.5793" gradientUnits="userSpaceOnUse">
<stop stop-color="#F67F01"/>
<stop offset="1" stop-color="#FDBB16"/>
</linearGradient>
<linearGradient id="paint3_linear_626_60" x1="-2.74731" y1="23.5793" x2="332.273" y2="23.5793" gradientUnits="userSpaceOnUse">
<stop stop-color="#F67F01"/>
<stop offset="1" stop-color="#FDBB16"/>
</linearGradient>
<linearGradient id="paint4_linear_626_60" x1="-2.74731" y1="23.5793" x2="332.273" y2="23.5793" gradientUnits="userSpaceOnUse">
<stop stop-color="#F67F01"/>
<stop offset="1" stop-color="#FDBB16"/>
</linearGradient>
<linearGradient id="paint5_linear_626_60" x1="-2.74731" y1="23.5793" x2="332.273" y2="23.5793" gradientUnits="userSpaceOnUse">
<stop stop-color="#F67F01"/>
<stop offset="1" stop-color="#FDBB16"/>
</linearGradient>
<linearGradient id="paint6_linear_626_60" x1="-2.74731" y1="23.5793" x2="332.273" y2="23.5793" gradientUnits="userSpaceOnUse">
<stop stop-color="#F67F01"/>
<stop offset="1" stop-color="#FDBB16"/>
</linearGradient>
<linearGradient id="paint7_linear_626_60" x1="-2.74731" y1="23.5793" x2="332.273" y2="23.5793" gradientUnits="userSpaceOnUse">
<stop stop-color="#F67F01"/>
<stop offset="1" stop-color="#FDBB16"/>
</linearGradient>
<linearGradient id="paint8_linear_626_60" x1="-2.74731" y1="23.5793" x2="332.273" y2="23.5793" gradientUnits="userSpaceOnUse">
<stop stop-color="#F67F01"/>
<stop offset="1" stop-color="#FDBB16"/>
</linearGradient>
<linearGradient id="paint9_linear_626_60" x1="-2.74731" y1="23.5793" x2="332.273" y2="23.5793" gradientUnits="userSpaceOnUse">
<stop stop-color="#F67F01"/>
<stop offset="1" stop-color="#FDBB16"/>
</linearGradient>
<linearGradient id="paint10_linear_626_60" x1="-2.74731" y1="23.5793" x2="332.273" y2="23.5793" gradientUnits="userSpaceOnUse">
<stop stop-color="#F67F01"/>
<stop offset="1" stop-color="#FDBB16"/>
</linearGradient>
<linearGradient id="paint11_linear_626_60" x1="-2.74731" y1="23.5793" x2="332.273" y2="23.5793" gradientUnits="userSpaceOnUse">
<stop stop-color="#F67F01"/>
<stop offset="1" stop-color="#FDBB16"/>
</linearGradient>
</defs>
</svg>
