<svg width="376" height="32" viewBox="0 0 376 32" fill="none" xmlns="http://www.w3.org/2000/svg">
<path d="M0 31.4696V0.530385H4.44898L18.1611 22.8066H16.003V0.530385H21.3152V31.4696H16.8995L3.15412 9.19337H5.31221V31.4696H0Z" fill="#232323"/>
<path d="M38.1024 32C36.2653 32 34.5609 31.6022 32.9894 30.8066C31.44 30.0111 30.0898 28.8913 28.9388 27.4475C27.81 26.0037 26.9246 24.3094 26.2827 22.3646C25.663 20.4199 25.3531 18.2983 25.3531 16C25.3531 13.7017 25.663 11.5801 26.2827 9.63536C26.9246 7.69061 27.8211 5.99632 28.972 4.55249C30.123 3.10865 31.4732 1.98895 33.0226 1.19337C34.572 0.397789 36.2542 0 38.0692 0C39.9063 0 41.5885 0.397789 43.1158 1.19337C44.6652 1.98895 46.0043 3.10865 47.1332 4.55249C48.2841 5.99632 49.1806 7.69061 49.8225 9.63536C50.4644 11.5506 50.7853 13.6722 50.7853 16C50.7853 18.2983 50.4644 20.4346 49.8225 22.4088C49.1806 24.3536 48.2841 26.0479 47.1332 27.4917C46.0043 28.9061 44.6652 30.0111 43.1158 30.8066C41.5885 31.6022 39.9174 32 38.1024 32ZM38.0692 25.9006C39.1095 25.9006 40.0613 25.6648 40.9245 25.1934C41.8099 24.7219 42.5846 24.0442 43.2486 23.1602C43.9126 22.2762 44.4217 21.2302 44.7759 20.0221C45.1521 18.814 45.3403 17.4733 45.3403 16C45.3403 14.5267 45.1521 13.186 44.7759 11.9779C44.4217 10.7698 43.9126 9.72376 43.2486 8.83978C42.6067 7.9558 41.8431 7.27808 40.9577 6.80663C40.0723 6.33518 39.1095 6.09945 38.0692 6.09945C37.0289 6.09945 36.0661 6.33518 35.1807 6.80663C34.3175 7.27808 33.5538 7.9558 32.8898 8.83978C32.2258 9.72376 31.7056 10.7698 31.3293 11.9779C30.9752 13.186 30.7981 14.5267 30.7981 16C30.7981 17.4438 30.9752 18.7845 31.3293 20.0221C31.7056 21.2302 32.2147 22.2762 32.8566 23.1602C33.5206 24.0442 34.2953 24.7219 35.1807 25.1934C36.0661 25.6648 37.0289 25.9006 38.0692 25.9006Z" fill="#232323"/>
<path d="M62.4639 32C60.6046 32 58.8228 31.6759 57.1185 31.0276C55.4141 30.3499 54.0418 29.4807 53.0015 28.4199L54.8276 23.0276C55.8236 23.9705 56.9967 24.7514 58.3469 25.3702C59.7192 25.9595 61.1026 26.2541 62.4971 26.2541C63.5595 26.2541 64.4117 26.1215 65.0536 25.8564C65.7176 25.5617 66.2046 25.1639 66.5144 24.663C66.8243 24.1621 66.9792 23.5875 66.9792 22.9392C66.9792 22.1142 66.7358 21.4659 66.2488 20.9945C65.7619 20.4936 65.12 20.0958 64.3231 19.8011C63.5263 19.477 62.6409 19.1823 61.667 18.9171C60.7153 18.6225 59.7524 18.2689 58.7785 17.8564C57.8267 17.4438 56.9524 16.9134 56.1556 16.2652C55.3588 15.6169 54.7058 14.7624 54.1967 13.7017C53.7098 12.6409 53.4663 11.2855 53.4663 9.63536C53.4663 7.8674 53.8205 6.26151 54.5288 4.81768C55.2592 3.34438 56.3438 2.18048 57.7825 1.32597C59.2433 0.441989 61.0694 0 63.2607 0C64.7216 0 66.1603 0.235727 67.5769 0.707181C68.9935 1.14917 70.244 1.82689 71.3286 2.74033L69.6686 8.1768C68.584 7.35175 67.4994 6.7477 66.4148 6.36464C65.3302 5.95212 64.2678 5.74586 63.2275 5.74586C62.1872 5.74586 61.335 5.90792 60.671 6.23204C60.007 6.55617 59.5311 6.98343 59.2433 7.51381C58.9556 8.01473 58.8117 8.60405 58.8117 9.28177C58.8117 10.0773 59.0552 10.7256 59.5422 11.2265C60.0291 11.698 60.671 12.081 61.4678 12.3757C62.2647 12.6703 63.139 12.965 64.0907 13.2597C65.0646 13.5543 66.0275 13.8932 66.9792 14.2762C67.9531 14.6593 68.8385 15.175 69.6354 15.8232C70.4322 16.4715 71.0741 17.326 71.561 18.3867C72.0701 19.4475 72.3247 20.7882 72.3247 22.4088C72.3247 24.1473 71.9594 25.7385 71.229 27.1823C70.4986 28.6262 69.4029 29.7901 67.9421 30.674C66.5034 31.558 64.6773 32 62.4639 32Z" fill="#232323"/>
<path d="M83.6362 32C81.7769 32 79.9951 31.6759 78.2908 31.0276C76.5864 30.3499 75.2141 29.4807 74.1738 28.4199L75.9999 23.0276C76.9959 23.9705 78.169 24.7514 79.5192 25.3702C80.8915 25.9595 82.2749 26.2541 83.6694 26.2541C84.7318 26.2541 85.584 26.1215 86.2259 25.8564C86.8899 25.5617 87.3769 25.1639 87.6868 24.663C87.9966 24.1621 88.1516 23.5875 88.1516 22.9392C88.1516 22.1142 87.9081 21.4659 87.4211 20.9945C86.9342 20.4936 86.2923 20.0958 85.4955 19.8011C84.6986 19.477 83.8133 19.1823 82.8394 18.9171C81.8876 18.6225 80.9248 18.2689 79.9508 17.8564C78.9991 17.4438 78.1248 16.9134 77.3279 16.2652C76.5311 15.6169 75.8782 14.7624 75.3691 13.7017C74.8821 12.6409 74.6386 11.2855 74.6386 9.63536C74.6386 7.8674 74.9928 6.26151 75.7011 4.81768C76.4315 3.34438 77.5161 2.18048 78.9548 1.32597C80.4157 0.441989 82.2417 0 84.433 0C85.8939 0 87.3326 0.235727 88.7492 0.707181C90.1658 1.14917 91.4164 1.82689 92.5009 2.74033L90.8409 8.1768C89.7563 7.35175 88.6717 6.7477 87.5872 6.36464C86.5026 5.95212 85.4401 5.74586 84.3998 5.74586C83.3595 5.74586 82.5074 5.90792 81.8433 6.23204C81.1793 6.55617 80.7034 6.98343 80.4157 7.51381C80.1279 8.01473 79.984 8.60405 79.984 9.28177C79.984 10.0773 80.2275 10.7256 80.7145 11.2265C81.2014 11.698 81.8433 12.081 82.6402 12.3757C83.437 12.6703 84.3113 12.965 85.2631 13.2597C86.237 13.5543 87.1998 13.8932 88.1516 14.2762C89.1255 14.6593 90.0108 15.175 90.8077 15.8232C91.6045 16.4715 92.2464 17.326 92.7334 18.3867C93.2424 19.4475 93.497 20.7882 93.497 22.4088C93.497 24.1473 93.1318 25.7385 92.4013 27.1823C91.6709 28.6262 90.5753 29.7901 89.1144 30.674C87.6757 31.558 85.8496 32 83.6362 32Z" fill="#232323"/>
<path d="M94.1177 31.4696L104.477 0.530385H109.789L120.181 31.4696H114.536L106.037 4.1547H108.162L99.6291 31.4696H94.1177ZM99.2971 24.8398L100.725 19.4033H112.677L114.138 24.8398H99.2971Z" fill="#232323"/>
<path d="M130.228 32C128.369 32 126.587 31.6759 124.883 31.0276C123.179 30.3499 121.806 29.4807 120.766 28.4199L122.592 23.0276C123.588 23.9705 124.761 24.7514 126.111 25.3702C127.484 25.9595 128.867 26.2541 130.261 26.2541C131.324 26.2541 132.176 26.1215 132.818 25.8564C133.482 25.5617 133.969 25.1639 134.279 24.663C134.589 24.1621 134.744 23.5875 134.744 22.9392C134.744 22.1142 134.5 21.4659 134.013 20.9945C133.526 20.4936 132.884 20.0958 132.088 19.8011C131.291 19.477 130.405 19.1823 129.431 18.9171C128.48 18.6225 127.517 18.2689 126.543 17.8564C125.591 17.4438 124.717 16.9134 123.92 16.2652C123.123 15.6169 122.47 14.7624 121.961 13.7017C121.474 12.6409 121.231 11.2855 121.231 9.63536C121.231 7.8674 121.585 6.26151 122.293 4.81768C123.024 3.34438 124.108 2.18048 125.547 1.32597C127.008 0.441989 128.834 0 131.025 0C132.486 0 133.925 0.235727 135.341 0.707181C136.758 1.14917 138.008 1.82689 139.093 2.74033L137.433 8.1768C136.348 7.35175 135.264 6.7477 134.179 6.36464C133.095 5.95212 132.032 5.74586 130.992 5.74586C129.952 5.74586 129.099 5.90792 128.435 6.23204C127.771 6.55617 127.295 6.98343 127.008 7.51381C126.72 8.01473 126.576 8.60405 126.576 9.28177C126.576 10.0773 126.82 10.7256 127.307 11.2265C127.794 11.698 128.435 12.081 129.232 12.3757C130.029 12.6703 130.903 12.965 131.855 13.2597C132.829 13.5543 133.792 13.8932 134.744 14.2762C135.718 14.6593 136.603 15.175 137.4 15.8232C138.197 16.4715 138.838 17.326 139.325 18.3867C139.835 19.4475 140.089 20.7882 140.089 22.4088C140.089 24.1473 139.724 25.7385 138.993 27.1823C138.263 28.6262 137.167 29.7901 135.706 30.674C134.268 31.558 132.442 32 130.228 32Z" fill="#232323"/>
<path d="M164.289 32C162.497 32 160.825 31.6169 159.276 30.8508C157.749 30.0552 156.421 28.9355 155.292 27.4917C154.163 26.0479 153.278 24.3536 152.636 22.4088C152.016 20.4641 151.706 18.3278 151.706 16C151.706 13.6722 152.016 11.5359 152.636 9.59116C153.278 7.64641 154.163 5.95212 155.292 4.50829C156.443 3.06446 157.782 1.95948 159.309 1.19337C160.837 0.397789 162.508 0 164.323 0C166.337 0 168.152 0.471455 169.768 1.41436C171.406 2.32781 172.778 3.68324 173.885 5.48066L170.432 9.72376C169.635 8.51565 168.749 7.61694 167.776 7.02762C166.802 6.40884 165.739 6.09945 164.588 6.09945C163.504 6.09945 162.508 6.33518 161.6 6.80663C160.693 7.27808 159.907 7.9558 159.243 8.83978C158.579 9.72376 158.059 10.7698 157.682 11.9779C157.328 13.186 157.151 14.5267 157.151 16C157.151 17.4733 157.328 18.814 157.682 20.0221C158.059 21.2302 158.579 22.2762 159.243 23.1602C159.907 24.0442 160.693 24.7219 161.6 25.1934C162.508 25.6648 163.504 25.9006 164.588 25.9006C165.739 25.9006 166.802 25.6059 167.776 25.0166C168.749 24.3978 169.635 23.4696 170.432 22.232L173.885 26.4751C172.778 28.2726 171.406 29.6427 169.768 30.5856C168.152 31.5285 166.326 32 164.289 32Z" fill="#232323"/>
<path d="M174.041 31.4696L184.4 0.530385H189.712L200.104 31.4696H194.46L185.96 4.1547H188.085L179.552 31.4696H174.041ZM179.22 24.8398L180.648 19.4033H192.6L194.061 24.8398H179.22Z" fill="#232323"/>
<path d="M206.162 31.4696V6.36464H198.725V0.530385H218.978V6.36464H211.541V31.4696H206.162Z" fill="#232323"/>
<path d="M226.819 12.9945H238.008V18.5635H226.819V12.9945ZM227.217 25.7238H239.867V31.4696H221.872V0.530385H239.435V6.27624H227.217V25.7238Z" fill="#232323"/>
<path d="M255.368 32C253.531 32 251.838 31.6169 250.289 30.8508C248.761 30.0552 247.422 28.9355 246.271 27.4917C245.142 26.0479 244.257 24.3536 243.615 22.4088C242.995 20.4641 242.686 18.3278 242.686 16C242.686 13.6722 242.995 11.5359 243.615 9.59116C244.257 7.64641 245.154 5.95212 246.304 4.50829C247.455 3.06446 248.806 1.95948 250.355 1.19337C251.904 0.397789 253.609 0 255.468 0C257.527 0 259.375 0.456721 261.013 1.37016C262.673 2.28361 264.067 3.60958 265.196 5.34807L261.743 9.59116C260.902 8.41252 259.983 7.54328 258.987 6.98343C257.991 6.39411 256.907 6.09945 255.734 6.09945C254.605 6.09945 253.576 6.33518 252.646 6.80663C251.716 7.27808 250.908 7.9558 250.222 8.83978C249.558 9.72376 249.038 10.7698 248.662 11.9779C248.308 13.186 248.131 14.5267 248.131 16C248.131 17.4438 248.308 18.7698 248.662 19.9779C249.038 21.186 249.558 22.2468 250.222 23.1602C250.908 24.0442 251.705 24.7219 252.613 25.1934C253.542 25.6648 254.561 25.9006 255.667 25.9006C256.73 25.9006 257.759 25.6796 258.755 25.2376C259.773 24.7661 260.758 23.9853 261.71 22.895L264.764 28.0663C263.503 29.3333 262.031 30.3057 260.349 30.9834C258.689 31.6611 257.029 32 255.368 32ZM259.851 27.1381V15.5138H264.764V28.0663L259.851 27.1381Z" fill="#232323"/>
<path d="M281.049 32C279.212 32 277.508 31.6022 275.936 30.8066C274.387 30.0111 273.037 28.8913 271.886 27.4475C270.757 26.0037 269.871 24.3094 269.229 22.3646C268.61 20.4199 268.3 18.2983 268.3 16C268.3 13.7017 268.61 11.5801 269.229 9.63536C269.871 7.69061 270.768 5.99632 271.919 4.55249C273.07 3.10865 274.42 1.98895 275.969 1.19337C277.519 0.397789 279.201 0 281.016 0C282.853 0 284.535 0.397789 286.063 1.19337C287.612 1.98895 288.951 3.10865 290.08 4.55249C291.231 5.99632 292.127 7.69061 292.769 9.63536C293.411 11.5506 293.732 13.6722 293.732 16C293.732 18.2983 293.411 20.4346 292.769 22.4088C292.127 24.3536 291.231 26.0479 290.08 27.4917C288.951 28.9061 287.612 30.0111 286.063 30.8066C284.535 31.6022 282.864 32 281.049 32ZM281.016 25.9006C282.056 25.9006 283.008 25.6648 283.871 25.1934C284.757 24.7219 285.531 24.0442 286.195 23.1602C286.859 22.2762 287.368 21.2302 287.723 20.0221C288.099 18.814 288.287 17.4733 288.287 16C288.287 14.5267 288.099 13.186 287.723 11.9779C287.368 10.7698 286.859 9.72376 286.195 8.83978C285.553 7.9558 284.79 7.27808 283.904 6.80663C283.019 6.33518 282.056 6.09945 281.016 6.09945C279.976 6.09945 279.013 6.33518 278.127 6.80663C277.264 7.27808 276.501 7.9558 275.837 8.83978C275.173 9.72376 274.652 10.7698 274.276 11.9779C273.922 13.186 273.745 14.5267 273.745 16C273.745 17.4438 273.922 18.7845 274.276 20.0221C274.652 21.2302 275.161 22.2762 275.803 23.1602C276.467 24.0442 277.242 24.7219 278.127 25.1934C279.013 25.6648 279.976 25.9006 281.016 25.9006Z" fill="#232323"/>
<path d="M297.774 31.4696V0.530385H307.834C309.915 0.530385 311.708 0.987107 313.213 1.90055C314.718 2.78453 315.88 4.0663 316.699 5.74586C317.518 7.42541 317.928 9.4291 317.928 11.7569C317.928 14.0552 317.518 16.0442 316.699 17.7238C315.88 19.3738 314.718 20.6409 313.213 21.5249C311.708 22.4088 309.915 22.8508 307.834 22.8508H300.762L303.153 19.7127V31.4696H297.774ZM312.549 31.4696L306.739 20.2431H312.482L318.359 31.4696H312.549ZM303.153 20.5083L300.762 17.1492H307.535C309.196 17.1492 310.435 16.6777 311.254 15.7348C312.073 14.7624 312.482 13.4365 312.482 11.7569C312.482 10.0479 312.073 8.72192 311.254 7.77901C310.435 6.8361 309.196 6.36464 307.535 6.36464H300.762L303.153 2.96132V20.5083Z" fill="#232323"/>
<path d="M322.189 31.4696V0.530385H327.568V31.4696H322.189Z" fill="#232323"/>
<path d="M330.029 31.4696L340.387 0.530385H345.7L356.092 31.4696H350.447L341.948 4.1547H344.073L335.54 31.4696H330.029ZM335.208 24.8398L336.636 19.4033H348.588L350.049 24.8398H335.208Z" fill="#232323"/>
<path d="M366.139 32C364.28 32 362.498 31.6759 360.794 31.0276C359.089 30.3499 357.717 29.4807 356.677 28.4199L358.503 23.0276C359.499 23.9705 360.672 24.7514 362.022 25.3702C363.395 25.9595 364.778 26.2541 366.172 26.2541C367.235 26.2541 368.087 26.1215 368.729 25.8564C369.393 25.5617 369.88 25.1639 370.19 24.663C370.5 24.1621 370.655 23.5875 370.655 22.9392C370.655 22.1142 370.411 21.4659 369.924 20.9945C369.437 20.4936 368.795 20.0958 367.998 19.8011C367.202 19.477 366.316 19.1823 365.342 18.9171C364.391 18.6225 363.428 18.2689 362.454 17.8564C361.502 17.4438 360.628 16.9134 359.831 16.2652C359.034 15.6169 358.381 14.7624 357.872 13.7017C357.385 12.6409 357.142 11.2855 357.142 9.63536C357.142 7.8674 357.496 6.26151 358.204 4.81768C358.935 3.34438 360.019 2.18048 361.458 1.32597C362.919 0.441989 364.745 0 366.936 0C368.397 0 369.836 0.235727 371.252 0.707181C372.669 1.14917 373.919 1.82689 375.004 2.74033L373.344 8.1768C372.259 7.35175 371.175 6.7477 370.09 6.36464C369.006 5.95212 367.943 5.74586 366.903 5.74586C365.863 5.74586 365.01 5.90792 364.346 6.23204C363.682 6.55617 363.206 6.98343 362.919 7.51381C362.631 8.01473 362.487 8.60405 362.487 9.28177C362.487 10.0773 362.731 10.7256 363.217 11.2265C363.704 11.698 364.346 12.081 365.143 12.3757C365.94 12.6703 366.814 12.965 367.766 13.2597C368.74 13.5543 369.703 13.8932 370.655 14.2762C371.628 14.6593 372.514 15.175 373.311 15.8232C374.108 16.4715 374.749 17.326 375.236 18.3867C375.745 19.4475 376 20.7882 376 22.4088C376 24.1473 375.635 25.7385 374.904 27.1823C374.174 28.6262 373.078 29.7901 371.617 30.674C370.179 31.558 368.353 32 366.139 32Z" fill="#232323"/>
</svg>
