<svg width="798" height="143" viewBox="0 0 798 143" fill="none" xmlns="http://www.w3.org/2000/svg">
<path d="M0 30.8961L13.6155 0.52072H18.4653L23.6464 30.8961H18.7665L14.6698 3.9922H16.5977L5.21125 30.8961H0ZM5.63297 24.3871L7.62108 19.0497H18.4954L19.0678 24.3871H5.63297Z" fill="url(#paint0_linear_626_58)"/>
<path d="M28.8464 30.8961L33.0636 0.52072H41.5884C44.2191 0.52072 46.2474 1.35966 47.6732 3.03754C49.1191 4.68649 49.842 7.00081 49.842 9.98049C49.842 12.5262 49.4303 14.7538 48.607 16.6631C47.7836 18.5435 46.5988 19.9899 45.0525 21.0024C43.5263 22.0149 41.7089 22.5212 39.6003 22.5212H32.7624L35.3529 19.3101L33.7564 30.8961H28.8464ZM35.2324 20.1346L33.5154 16.7933H39.8111C41.4177 16.7933 42.6627 16.2725 43.5463 15.2311C44.45 14.1607 44.9019 12.613 44.9019 10.588C44.9019 9.11262 44.5605 8.02779 43.8777 7.33349C43.1949 6.61027 42.231 6.24865 40.9859 6.24865H35.0517L37.6423 2.82057L35.2324 20.1346Z" fill="url(#paint1_linear_626_58)"/>
<path d="M53.6271 30.8961L57.8443 0.52072H66.4294C69.0601 0.52072 71.0884 1.3452 72.5142 2.99415C73.9601 4.6431 74.683 6.95742 74.683 9.9371C74.683 12.4828 74.2613 14.6959 73.4179 16.5763C72.5945 18.4277 71.4097 19.8597 69.8634 20.8722C68.3371 21.8848 66.5298 22.391 64.4413 22.391H57.5732L60.1337 19.3101L58.5372 30.8961H53.6271ZM67.1824 30.8961L62.8749 19.8742H67.9958L72.3334 30.8961H67.1824ZM60.0132 20.1346L58.3263 16.7933H64.622C66.2486 16.7933 67.5037 16.2725 68.3873 15.2311C69.291 14.1607 69.7429 12.613 69.7429 10.588C69.7429 9.11262 69.3914 8.02779 68.6886 7.33349C68.0058 6.61027 67.0419 6.24865 65.7968 6.24865H59.8626L62.423 2.82057L60.0132 20.1346Z" fill="url(#paint2_linear_626_58)"/>
<path d="M78.7903 30.8961L83.0075 0.52072H87.9175L83.7003 30.8961H78.7903Z" fill="url(#paint3_linear_626_58)"/>
<path d="M91.6867 30.8961L95.9039 0.52072H99.8801L105.875 22.0439L103.766 22.0005L115.454 0.52072H119.641L115.454 30.8961H110.875L113.676 10.5446H114.61L105.302 27.685H103.133L98.1631 10.5012L99.0667 10.6314L96.2653 30.8961H91.6867Z" fill="url(#paint4_linear_626_58)"/>
<path d="M134.403 31.4169C132.275 31.4169 130.437 30.8672 128.891 29.7679C127.365 28.6397 126.19 27.092 125.366 25.1248C124.543 23.1287 124.131 20.8289 124.131 18.2252C124.131 15.6216 124.443 13.2205 125.065 11.0219C125.688 8.7944 126.571 6.87063 127.716 5.25061C128.881 3.60166 130.256 2.31432 131.843 1.38859C133.449 0.462863 135.227 0 137.175 0C139.303 0 141.131 0.564114 142.657 1.69234C144.203 2.79164 145.388 4.33934 146.211 6.33544C147.035 8.30261 147.446 10.588 147.446 13.1916C147.446 15.7952 147.135 18.2108 146.513 20.4383C145.89 22.6369 144.996 24.5607 143.832 26.2096C142.687 27.8297 141.311 29.1025 139.705 30.0283C138.118 30.954 136.351 31.4169 134.403 31.4169ZM134.825 25.4286C136.01 25.4286 137.074 25.1248 138.018 24.5173C138.982 23.8809 139.795 23.013 140.458 21.9137C141.121 20.8144 141.623 19.556 141.964 18.1385C142.326 16.692 142.506 15.1732 142.506 13.5821C142.506 12.0778 142.285 10.7616 141.844 9.63334C141.402 8.47619 140.749 7.57939 139.886 6.94295C139.042 6.30651 137.998 5.9883 136.753 5.9883C135.568 5.9883 134.504 6.30651 133.56 6.94295C132.616 7.55046 131.803 8.40386 131.12 9.50316C130.457 10.6025 129.945 11.8753 129.584 13.3218C129.242 14.7393 129.071 16.2436 129.071 17.8347C129.071 19.339 129.292 20.6697 129.734 21.8269C130.196 22.9551 130.849 23.8375 131.692 24.4739C132.556 25.1103 133.6 25.4286 134.825 25.4286Z" fill="url(#paint5_linear_626_58)"/>
<path d="M151.897 30.8961L156.114 0.52072H164.699C167.33 0.52072 169.358 1.3452 170.784 2.99415C172.23 4.6431 172.953 6.95742 172.953 9.9371C172.953 12.4828 172.531 14.6959 171.688 16.5763C170.864 18.4277 169.68 19.8597 168.133 20.8722C166.607 21.8848 164.8 22.391 162.711 22.391H155.843L158.404 19.3101L156.807 30.8961H151.897ZM165.452 30.8961L161.145 19.8742H166.266L170.603 30.8961H165.452ZM158.283 20.1346L156.596 16.7933H162.892C164.519 16.7933 165.774 16.2725 166.657 15.2311C167.561 14.1607 168.013 12.613 168.013 10.588C168.013 9.11262 167.661 8.02779 166.958 7.33349C166.276 6.61027 165.312 6.24865 164.067 6.24865H158.132L160.693 2.82057L158.283 20.1346Z" fill="url(#paint6_linear_626_58)"/>
<path d="M174.289 30.8961L187.904 0.52072H192.754L197.935 30.8961H193.055L188.959 3.9922H190.887L179.5 30.8961H174.289ZM179.922 24.3871L181.91 19.0497H192.784L193.357 24.3871H179.922Z" fill="url(#paint7_linear_626_58)"/>
<path d="M203.135 30.8961L207.353 0.52072H211.389L220.456 22.5212L218.859 22.391L221.872 0.52072H226.691L222.474 30.8961H218.468L209.371 8.89565L210.997 9.02584L207.955 30.8961H203.135Z" fill="url(#paint8_linear_626_58)"/>
<path d="M230.475 30.8961L234.693 0.52072H243.519C245.687 0.52072 247.545 1.04144 249.091 2.08288C250.658 3.0954 251.853 4.55631 252.676 6.46562C253.499 8.34601 253.911 10.588 253.911 13.1916C253.911 15.882 253.59 18.312 252.947 20.4817C252.324 22.6514 251.431 24.5173 250.266 26.0795C249.101 27.6127 247.716 28.7988 246.109 29.6377C244.503 30.4767 242.725 30.8961 240.777 30.8961H230.475ZM236.169 25.1248H240.928C242.635 25.1248 244.081 24.6185 245.266 23.606C246.471 22.5935 247.384 21.2194 248.007 19.4837C248.649 17.7479 248.971 15.7807 248.971 13.5821C248.971 12.0778 248.75 10.7905 248.308 9.72013C247.866 8.62083 247.194 7.78189 246.29 7.20331C245.406 6.5958 244.302 6.29205 242.976 6.29205H238.789L236.169 25.1248Z" fill="url(#paint9_linear_626_58)"/>
<path d="M269.309 31.4169C267.18 31.4169 265.343 30.8672 263.796 29.7679C262.27 28.6397 261.095 27.092 260.272 25.1248C259.449 23.1287 259.037 20.8289 259.037 18.2252C259.037 15.6216 259.348 13.2205 259.971 11.0219C260.593 8.7944 261.477 6.87063 262.622 5.25061C263.786 3.60166 265.162 2.31432 266.748 1.38859C268.355 0.462863 270.132 0 272.08 0C274.209 0 276.036 0.564114 277.563 1.69234C279.109 2.79164 280.294 4.33934 281.117 6.33544C281.94 8.30261 282.352 10.588 282.352 13.1916C282.352 15.7952 282.041 18.2108 281.418 20.4383C280.796 22.6369 279.902 24.5607 278.737 26.2096C277.593 27.8297 276.217 29.1025 274.611 30.0283C273.024 30.954 271.257 31.4169 269.309 31.4169ZM269.731 25.4286C270.915 25.4286 271.98 25.1248 272.924 24.5173C273.888 23.8809 274.701 23.013 275.364 21.9137C276.026 20.8144 276.528 19.556 276.87 18.1385C277.231 16.692 277.412 15.1732 277.412 13.5821C277.412 12.0778 277.191 10.7616 276.749 9.63334C276.307 8.47619 275.655 7.57939 274.791 6.94295C273.948 6.30651 272.904 5.9883 271.658 5.9883C270.474 5.9883 269.409 6.30651 268.465 6.94295C267.522 7.55046 266.708 8.40386 266.026 9.50316C265.363 10.6025 264.851 11.8753 264.489 13.3218C264.148 14.7393 263.977 16.2436 263.977 17.8347C263.977 19.339 264.198 20.6697 264.64 21.8269C265.102 22.9551 265.754 23.8375 266.598 24.4739C267.461 25.1103 268.506 25.4286 269.731 25.4286Z" fill="url(#paint10_linear_626_58)"/>
<path d="M298.346 30.8961L302.563 0.52072H307.473L303.256 30.8961H298.346Z" fill="url(#paint11_linear_626_58)"/>
<path d="M311.242 30.8961L315.459 0.52072H324.285C326.454 0.52072 328.312 1.04144 329.858 2.08288C331.425 3.0954 332.619 4.55631 333.443 6.46562C334.266 8.34601 334.678 10.588 334.678 13.1916C334.678 15.882 334.357 18.312 333.714 20.4817C333.091 22.6514 332.198 24.5173 331.033 26.0795C329.868 27.6127 328.483 28.7988 326.876 29.6377C325.269 30.4767 323.492 30.8961 321.544 30.8961H311.242ZM316.935 25.1248H321.695C323.402 25.1248 324.848 24.6185 326.033 23.606C327.237 22.5935 328.151 21.2194 328.774 19.4837C329.416 17.7479 329.738 15.7807 329.738 13.5821C329.738 12.0778 329.517 10.7905 329.075 9.72013C328.633 8.62083 327.96 7.78189 327.057 7.20331C326.173 6.5958 325.069 6.29205 323.743 6.29205H319.556L316.935 25.1248Z" fill="url(#paint12_linear_626_58)"/>
<path d="M346.16 12.7577H356.311L355.558 18.2252H345.407L346.16 12.7577ZM344.774 25.255H356.281L355.468 30.8961H339.141L343.358 0.52072H359.293L358.48 6.16187H347.425L344.774 25.255Z" fill="url(#paint13_linear_626_58)"/>
<path d="M362.363 30.8961L366.58 0.52072H371.49L367.273 30.8961H362.363Z" fill="url(#paint14_linear_626_58)"/>
<path d="M372.488 30.8961L386.103 0.52072H390.953L396.134 30.8961H391.254L387.158 3.9922H389.086L377.699 30.8961H372.488ZM378.121 24.3871L380.109 19.0497H390.983L391.556 24.3871H378.121Z" fill="url(#paint15_linear_626_58)"/>
<path d="M408.684 31.4169C407.54 31.4169 406.425 31.2577 405.341 30.9395C404.276 30.6502 403.302 30.2452 402.419 29.7245C401.555 29.2038 400.822 28.6397 400.22 28.0322L402.208 22.608C402.871 23.2733 403.573 23.8519 404.316 24.3437C405.08 24.8066 405.873 25.1682 406.696 25.4286C407.52 25.66 408.343 25.7757 409.166 25.7757C410.07 25.7757 410.843 25.6311 411.486 25.3418C412.148 25.0525 412.65 24.6475 412.992 24.1267C413.353 23.606 413.534 22.9696 413.534 22.2174C413.534 21.5231 413.343 20.959 412.962 20.5251C412.58 20.0912 412.078 19.7295 411.456 19.4403C410.853 19.122 410.18 18.8183 409.437 18.529C408.694 18.2397 407.941 17.907 407.178 17.5309C406.435 17.1259 405.752 16.6342 405.13 16.0556C404.527 15.4481 404.035 14.6814 403.654 13.7557C403.272 12.83 403.081 11.6728 403.081 10.2842C403.081 8.20136 403.473 6.3933 404.256 4.86006C405.059 3.32683 406.184 2.14074 407.63 1.3018C409.076 0.433934 410.773 0 412.721 0C414.147 0 415.492 0.231431 416.757 0.694294C418.022 1.12823 419.107 1.76467 420.01 2.60361L418.173 7.98439C417.37 7.20331 416.476 6.62473 415.492 6.24865C414.508 5.84365 413.494 5.64115 412.45 5.64115C411.506 5.64115 410.692 5.80026 410.01 6.11847C409.347 6.43669 408.835 6.88509 408.473 7.46367C408.132 8.01332 407.961 8.64976 407.961 9.37298C407.961 10.0962 408.142 10.6893 408.504 11.1521C408.885 11.5861 409.387 11.9621 410.01 12.2803C410.632 12.5696 411.315 12.8589 412.058 13.1482C412.801 13.4375 413.544 13.7702 414.287 14.1463C415.03 14.5223 415.713 14.9997 416.335 15.5782C416.958 16.1568 417.46 16.8945 417.842 17.7913C418.223 18.6592 418.414 19.7585 418.414 21.0892C418.414 23.1721 418.012 24.9946 417.209 26.5568C416.406 28.09 415.271 29.2906 413.805 30.1584C412.359 30.9974 410.652 31.4169 408.684 31.4169Z" fill="url(#paint16_linear_626_58)"/>
<path d="M486.423 31.4169C484.294 31.4169 482.446 30.8672 480.88 29.7679C479.334 28.6397 478.129 27.092 477.265 25.1248C476.422 23.1287 476 20.8289 476 18.2252C476 15.6506 476.311 13.2495 476.934 11.0219C477.576 8.7944 478.48 6.87063 479.645 5.25061C480.81 3.60166 482.205 2.31432 483.832 1.38859C485.459 0.462863 487.266 0 489.254 0C491.262 0 492.999 0.462863 494.465 1.38859C495.951 2.28539 497.146 3.58719 498.05 5.294L494.556 9.37298C493.853 8.15797 493.05 7.2901 492.146 6.76938C491.262 6.24866 490.228 5.9883 489.043 5.9883C487.798 5.9883 486.673 6.29205 485.669 6.89956C484.685 7.47814 483.842 8.30261 483.139 9.37298C482.436 10.4434 481.894 11.7018 481.513 13.1482C481.131 14.5657 480.94 16.1134 480.94 17.7913C480.94 19.3245 481.171 20.6697 481.633 21.8269C482.095 22.9551 482.778 23.8375 483.681 24.4739C484.605 25.1103 485.73 25.4286 487.055 25.4286C488.059 25.4286 489.023 25.1827 489.947 24.6909C490.871 24.1991 491.764 23.4325 492.628 22.391L494.495 27.7284C493.431 28.9145 492.196 29.8258 490.79 30.4622C489.405 31.0986 487.949 31.4169 486.423 31.4169ZM490.218 26.6436L491.784 15.2311H496.243L494.495 27.7284L490.218 26.6436Z" fill="url(#paint17_linear_626_58)"/>
<path d="M508.608 12.7577H518.759L518.006 18.2252H507.854L508.608 12.7577ZM507.222 25.255H518.729L517.915 30.8961H501.589L505.806 0.52072H521.741L520.928 6.16187H509.873L507.222 25.255Z" fill="url(#paint18_linear_626_58)"/>
<path d="M524.811 30.8961L529.028 0.52072H537.613C540.244 0.52072 542.272 1.3452 543.698 2.99415C545.143 4.6431 545.866 6.95742 545.866 9.9371C545.866 12.4828 545.445 14.6959 544.601 16.5763C543.778 18.4277 542.593 19.8597 541.047 20.8722C539.521 21.8848 537.713 22.391 535.625 22.391H528.757L531.317 19.3101L529.721 30.8961H524.811ZM538.366 30.8961L534.058 19.8742H539.179L543.517 30.8961H538.366ZM531.197 20.1346L529.51 16.7933H535.805C537.432 16.7933 538.687 16.2725 539.571 15.2311C540.474 14.1607 540.926 12.613 540.926 10.588C540.926 9.11262 540.575 8.02779 539.872 7.33349C539.189 6.61027 538.225 6.24865 536.98 6.24865H531.046L533.606 2.82057L531.197 20.1346Z" fill="url(#paint19_linear_626_58)"/>
<path d="M547.202 30.8961L560.818 0.52072H565.668L570.849 30.8961H565.969L561.872 3.9922H563.8L552.414 30.8961H547.202ZM552.835 24.3871L554.823 19.0497H565.698L566.27 24.3871H552.835Z" fill="url(#paint20_linear_626_58)"/>
<path d="M576.049 30.8961L580.266 0.52072H584.302L593.369 22.5212L591.773 22.391L594.785 0.52072H599.605L595.388 30.8961H591.381L582.284 8.89565L583.911 9.02584L580.869 30.8961H576.049Z" fill="url(#paint21_linear_626_58)"/>
<path d="M603.389 30.8961L607.606 0.52072H616.432C618.601 0.52072 620.458 1.04144 622.005 2.08288C623.571 3.0954 624.766 4.55631 625.589 6.46562C626.413 8.34601 626.824 10.588 626.824 13.1916C626.824 15.882 626.503 18.312 625.86 20.4817C625.238 22.6514 624.344 24.5173 623.18 26.0795C622.015 27.6127 620.629 28.7988 619.023 29.6377C617.416 30.4767 615.639 30.8961 613.691 30.8961H603.389ZM609.082 25.1248H613.841C615.548 25.1248 616.994 24.6185 618.179 23.606C619.384 22.5935 620.298 21.2194 620.92 19.4837C621.563 17.7479 621.884 15.7807 621.884 13.5821C621.884 12.0778 621.663 10.7905 621.221 9.72013C620.78 8.62083 620.107 7.78189 619.203 7.20331C618.32 6.5958 617.215 6.29205 615.89 6.29205H611.703L609.082 25.1248Z" fill="url(#paint22_linear_626_58)"/>
<path d="M642.222 31.4169C640.094 31.4169 638.256 30.8672 636.71 29.7679C635.184 28.6397 634.009 27.092 633.186 25.1248C632.362 23.1287 631.951 20.8289 631.951 18.2252C631.951 15.6216 632.262 13.2205 632.884 11.0219C633.507 8.7944 634.39 6.87063 635.535 5.25061C636.7 3.60166 638.075 2.31432 639.662 1.38859C641.268 0.462863 643.046 0 644.994 0C647.122 0 648.95 0.564114 650.476 1.69234C652.022 2.79164 653.207 4.33934 654.031 6.33544C654.854 8.30261 655.266 10.588 655.266 13.1916C655.266 15.7952 654.954 18.2108 654.332 20.4383C653.709 22.6369 652.816 24.5607 651.651 26.2096C650.506 27.8297 649.131 29.1025 647.524 30.0283C645.938 30.954 644.17 31.4169 642.222 31.4169ZM642.644 25.4286C643.829 25.4286 644.893 25.1248 645.837 24.5173C646.801 23.8809 647.614 23.013 648.277 21.9137C648.94 20.8144 649.442 19.556 649.783 18.1385C650.145 16.692 650.325 15.1732 650.325 13.5821C650.325 12.0778 650.104 10.7616 649.663 9.63334C649.221 8.47619 648.568 7.57939 647.705 6.94295C646.861 6.30651 645.817 5.9883 644.572 5.9883C643.387 5.9883 642.323 6.30651 641.379 6.94295C640.435 7.55046 639.622 8.40386 638.939 9.50316C638.276 10.6025 637.764 11.8753 637.403 13.3218C637.061 14.7393 636.891 16.2436 636.891 17.8347C636.891 19.339 637.112 20.6697 637.553 21.8269C638.015 22.9551 638.668 23.8375 639.511 24.4739C640.375 25.1103 641.419 25.4286 642.644 25.4286Z" fill="url(#paint23_linear_626_58)"/>
<path d="M10.1213 87.2084C8.97661 87.2084 7.86206 87.0493 6.77764 86.7311C5.7133 86.4418 4.73933 86.0368 3.85573 85.5161C2.9922 84.9954 2.25921 84.4313 1.65676 83.8237L3.64487 78.3996C4.30757 79.0649 5.01043 79.6435 5.75346 80.1353C6.51658 80.5982 7.30981 80.9598 8.13317 81.2201C8.95653 81.4516 9.77989 81.5673 10.6032 81.5673C11.5069 81.5673 12.2801 81.4226 12.9227 81.1333C13.5854 80.8441 14.0875 80.4391 14.4288 79.9183C14.7903 79.3976 14.9711 78.7612 14.9711 78.009C14.9711 77.3147 14.7803 76.7506 14.3987 76.3167C14.0172 75.8827 13.5151 75.5211 12.8926 75.2318C12.2901 74.9136 11.6174 74.6099 10.8743 74.3206C10.1313 74.0313 9.37825 73.6986 8.61514 73.3225C7.87211 72.9175 7.18932 72.4257 6.56678 71.8472C5.96432 71.2396 5.47232 70.473 5.09076 69.5473C4.70921 68.6216 4.51843 67.4644 4.51843 66.0758C4.51843 63.9929 4.91003 62.1849 5.69322 60.6516C6.4965 59.1184 7.62108 57.9323 9.06698 57.0934C10.5129 56.2255 12.2098 55.7916 14.1577 55.7916C15.5836 55.7916 16.929 56.023 18.1942 56.4859C19.4594 56.9198 20.5438 57.5563 21.4475 58.3952L19.61 63.776C18.8067 62.9949 17.9131 62.4163 16.929 62.0402C15.945 61.6352 14.9309 61.4327 13.8866 61.4327C12.9428 61.4327 12.1295 61.5918 11.4467 61.9101C10.784 62.2283 10.2719 62.6767 9.91042 63.2552C9.56903 63.8049 9.39833 64.4413 9.39833 65.1646C9.39833 65.8878 9.57907 66.4808 9.94054 66.9437C10.3221 67.3776 10.8241 67.7537 11.4467 68.0719C12.0692 68.3612 12.752 68.6505 13.495 68.9398C14.2381 69.2291 14.9811 69.5618 15.7241 69.9378C16.4672 70.3139 17.1499 70.7912 17.7725 71.3698C18.395 71.9484 18.8971 72.6861 19.2786 73.5829C19.6602 74.4508 19.851 75.5501 19.851 76.8808C19.851 78.9637 19.4493 80.7862 18.646 82.3484C17.8428 83.8816 16.7081 85.0821 15.2422 85.95C13.7963 86.789 12.0893 87.2084 10.1213 87.2084Z" fill="url(#paint24_linear_626_58)"/>
<path d="M35.9274 87.2084C33.7987 87.2084 31.9612 86.6588 30.4149 85.5595C28.8887 84.4313 27.7139 82.8836 26.8905 80.9164C26.0672 78.9203 25.6555 76.6204 25.6555 74.0168C25.6555 71.4132 25.9668 69.0121 26.5893 66.8135C27.2118 64.586 28.0954 62.6622 29.2401 61.0422C30.4049 59.3932 31.7805 58.1059 33.3669 57.1802C34.9735 56.2544 36.7507 55.7916 38.6987 55.7916C40.8274 55.7916 42.6548 56.3557 44.181 57.4839C45.7273 58.5832 46.9122 60.1309 47.7355 62.127C48.5589 64.0942 48.9706 66.3796 48.9706 68.9832C48.9706 71.5868 48.6593 74.0024 48.0368 76.2299C47.4142 78.4285 46.5206 80.3523 45.3558 82.0012C44.2112 83.6212 42.8356 84.8941 41.229 85.8198C39.6425 86.7456 37.8753 87.2084 35.9274 87.2084ZM36.3491 81.2201C37.5339 81.2201 38.5983 80.9164 39.5421 80.3089C40.5061 79.6724 41.3194 78.8046 41.9821 77.7053C42.6448 76.606 43.1468 75.3476 43.4882 73.93C43.8497 72.4836 44.0304 70.9648 44.0304 69.3737C44.0304 67.8694 43.8095 66.5531 43.3677 65.4249C42.9259 64.2678 42.2733 63.371 41.4097 62.7345C40.5663 62.0981 39.522 61.7799 38.277 61.7799C37.0921 61.7799 36.0278 62.0981 35.0839 62.7345C34.1401 63.342 33.3268 64.1954 32.644 65.2947C31.9813 66.394 31.4692 67.6669 31.1077 69.1134C30.7663 70.5309 30.5956 72.0352 30.5956 73.6263C30.5956 75.1306 30.8165 76.4613 31.2583 77.6185C31.7202 78.7467 32.3729 79.629 33.2163 80.2655C34.0798 80.9019 35.1241 81.2201 36.3491 81.2201Z" fill="url(#paint25_linear_626_58)"/>
<path d="M53.4212 86.6877L57.6384 56.3123H62.5485L59.1144 80.9598H69.6876L68.8743 86.6877H53.4212Z" fill="url(#paint26_linear_626_58)"/>
<path d="M84.3183 87.2084C82.27 87.2084 80.563 86.6298 79.1974 85.4727C77.8319 84.3155 76.868 82.71 76.3057 80.656C75.7635 78.5731 75.6831 76.1286 76.0647 73.3225L78.4143 56.3123H83.3243L80.9747 73.1924C80.794 74.552 80.7438 75.7381 80.8241 76.7506C80.9044 77.7631 81.1052 78.6021 81.4265 79.2674C81.7679 79.9328 82.2298 80.4246 82.8122 80.7428C83.3946 81.061 84.0773 81.2201 84.8605 81.2201C85.8446 81.2201 86.698 80.9453 87.421 80.3957C88.1439 79.846 88.7464 78.9781 89.2284 77.7921C89.7103 76.606 90.0818 75.0727 90.3429 73.1924L92.6925 56.3123H97.482L95.1023 73.6263C94.4798 78.1103 93.2648 81.495 91.4575 83.7803C89.6501 86.0657 87.2704 87.2084 84.3183 87.2084Z" fill="url(#paint27_linear_626_58)"/>
<path d="M112.215 87.2084C110.066 87.2084 108.208 86.6588 106.642 85.5595C105.096 84.4313 103.901 82.8836 103.057 80.9164C102.214 78.9203 101.792 76.6204 101.792 74.0168C101.792 71.4421 102.103 69.041 102.726 66.8135C103.369 64.586 104.262 62.6622 105.407 61.0422C106.572 59.3932 107.947 58.1059 109.534 57.1802C111.14 56.2544 112.928 55.7916 114.896 55.7916C116.783 55.7916 118.45 56.2544 119.896 57.1802C121.342 58.1059 122.436 59.4366 123.179 61.1724L119.655 65.3381C119.113 64.181 118.42 63.2986 117.577 62.6911C116.733 62.0836 115.729 61.7799 114.564 61.7799C113.379 61.7799 112.305 62.0836 111.341 62.6911C110.377 63.2697 109.544 64.1086 108.841 65.2079C108.158 66.2783 107.636 67.5367 107.275 68.9832C106.913 70.4296 106.732 71.9629 106.732 73.5829C106.732 75.1161 106.963 76.4613 107.425 77.6185C107.887 78.7467 108.56 79.629 109.443 80.2655C110.327 80.9019 111.391 81.2201 112.636 81.2201C113.721 81.2201 114.735 80.9453 115.679 80.3957C116.623 79.8171 117.476 78.9203 118.239 77.7053L121.131 81.9578C120.027 83.8093 118.711 85.1545 117.185 85.9934C115.679 86.8034 114.022 87.2084 112.215 87.2084ZM108.751 96.755C108.188 96.755 107.656 96.6682 107.154 96.4946C106.672 96.3211 106.25 96.1041 105.889 95.8437L106.943 92.9364C107.224 93.1389 107.536 93.298 107.877 93.4137C108.218 93.5294 108.58 93.5873 108.961 93.5873C109.524 93.5873 109.935 93.4426 110.196 93.1533C110.478 92.893 110.618 92.5603 110.618 92.1553C110.638 91.7503 110.548 91.4465 110.347 91.244C110.146 91.0415 109.805 90.9403 109.323 90.9403H108.269L109.714 86.3406H112.215L111.462 88.8574C112.205 89.002 112.757 89.3781 113.118 89.9856C113.48 90.622 113.63 91.3597 113.57 92.1987C113.49 93.6162 113.008 94.7299 112.124 95.54C111.261 96.35 110.136 96.755 108.751 96.755Z" fill="url(#paint28_linear_626_58)"/>
<path d="M136.727 87.2084C134.598 87.2084 132.761 86.6588 131.215 85.5595C129.688 84.4313 128.514 82.8836 127.69 80.9164C126.867 78.9203 126.455 76.6204 126.455 74.0168C126.455 71.4132 126.767 69.0121 127.389 66.8135C128.012 64.586 128.895 62.6622 130.04 61.0422C131.205 59.3932 132.58 58.1059 134.167 57.1802C135.773 56.2544 137.551 55.7916 139.498 55.7916C141.627 55.7916 143.455 56.3557 144.981 57.4839C146.527 58.5832 147.712 60.1309 148.535 62.127C149.359 64.0942 149.77 66.3796 149.77 68.9832C149.77 71.5868 149.459 74.0024 148.837 76.2299C148.214 78.4285 147.32 80.3523 146.156 82.0012C145.011 83.6212 143.635 84.8941 142.029 85.8198C140.442 86.7456 138.675 87.2084 136.727 87.2084ZM137.149 81.2201C138.334 81.2201 139.398 80.9164 140.342 80.3089C141.306 79.6724 142.119 78.8046 142.782 77.7053C143.445 76.606 143.947 75.3476 144.288 73.93C144.649 72.4836 144.83 70.9648 144.83 69.3737C144.83 67.8694 144.609 66.5531 144.167 65.4249C143.726 64.2678 143.073 63.371 142.21 62.7345C141.366 62.0981 140.322 61.7799 139.077 61.7799C137.892 61.7799 136.828 62.0981 135.884 62.7345C134.94 63.342 134.127 64.1954 133.444 65.2947C132.781 66.394 132.269 67.6669 131.908 69.1134C131.566 70.5309 131.395 72.0352 131.395 73.6263C131.395 75.1306 131.616 76.4613 132.058 77.6185C132.52 78.7467 133.173 79.629 134.016 80.2655C134.88 80.9019 135.924 81.2201 137.149 81.2201ZM143.083 53.9691C142.561 53.9691 142.099 53.8389 141.697 53.5785C141.316 53.2892 140.964 52.971 140.643 52.6239C140.342 52.2478 140.051 51.9296 139.77 51.6692C139.488 51.3799 139.187 51.2353 138.866 51.2353C138.464 51.2353 138.123 51.4522 137.842 51.8862C137.561 52.3201 137.37 52.9131 137.269 53.6653H134.89C135.111 51.6113 135.572 50.0492 136.275 48.9788C136.978 47.8795 137.852 47.3298 138.896 47.3298C139.418 47.3298 139.87 47.4745 140.252 47.7638C140.653 48.0241 141.005 48.3424 141.306 48.7184C141.627 49.0945 141.928 49.4272 142.21 49.7165C142.491 49.9769 142.782 50.107 143.083 50.107C143.505 50.107 143.856 49.8901 144.137 49.4561C144.419 48.9933 144.599 48.4292 144.68 47.7638H147.059C146.838 49.731 146.377 51.2642 145.674 52.3635C144.991 53.4339 144.127 53.9691 143.083 53.9691Z" fill="url(#paint29_linear_626_58)"/>
<path d="M161.24 68.5492H171.391L170.638 74.0168H160.487L161.24 68.5492ZM159.854 81.0466H171.361L170.548 86.6877H154.221L158.438 56.3123H174.373L173.56 61.9534H162.505L159.854 81.0466Z" fill="url(#paint30_linear_626_58)"/>
<path d="M184.793 87.2084C183.648 87.2084 182.533 87.0493 181.449 86.7311C180.385 86.4418 179.411 86.0368 178.527 85.5161C177.664 84.9954 176.931 84.4313 176.328 83.8237L178.316 78.3996C178.979 79.0649 179.682 79.6435 180.425 80.1353C181.188 80.5982 181.981 80.9598 182.805 81.2201C183.628 81.4516 184.451 81.5673 185.275 81.5673C186.178 81.5673 186.951 81.4226 187.594 81.1333C188.257 80.8441 188.759 80.4391 189.1 79.9183C189.462 79.3976 189.642 78.7612 189.642 78.009C189.642 77.3147 189.452 76.7506 189.07 76.3167C188.689 75.8827 188.186 75.5211 187.564 75.2318C186.961 74.9136 186.289 74.6099 185.546 74.3206C184.803 74.0313 184.05 73.6986 183.286 73.3225C182.543 72.9175 181.861 72.4257 181.238 71.8472C180.636 71.2396 180.144 70.473 179.762 69.5473C179.381 68.6216 179.19 67.4644 179.19 66.0758C179.19 63.9929 179.581 62.1849 180.365 60.6516C181.168 59.1184 182.292 57.9323 183.738 57.0934C185.184 56.2255 186.881 55.7916 188.829 55.7916C190.255 55.7916 191.6 56.023 192.866 56.4859C194.131 56.9198 195.215 57.5563 196.119 58.3952L194.281 63.776C193.478 62.9949 192.584 62.4163 191.6 62.0402C190.616 61.6352 189.602 61.4327 188.558 61.4327C187.614 61.4327 186.801 61.5918 186.118 61.9101C185.455 62.2283 184.943 62.6767 184.582 63.2552C184.24 63.8049 184.07 64.4413 184.07 65.1646C184.07 65.8878 184.25 66.4808 184.612 66.9437C184.993 67.3776 185.495 67.7537 186.118 68.0719C186.741 68.3612 187.423 68.6505 188.166 68.9398C188.909 69.2291 189.652 69.5618 190.395 69.9378C191.139 70.3139 191.821 70.7912 192.444 71.3698C193.066 71.9484 193.568 72.6861 193.95 73.5829C194.332 74.4508 194.522 75.5501 194.522 76.8808C194.522 78.9637 194.121 80.7862 193.317 82.3484C192.514 83.8816 191.38 85.0821 189.914 85.95C188.468 86.789 186.761 87.2084 184.793 87.2084Z" fill="url(#paint31_linear_626_58)"/>
<path d="M211.207 86.6877L215.424 56.3123H220.335L216.117 86.6877H211.207Z" fill="url(#paint32_linear_626_58)"/>
<path d="M224.104 86.6877L228.321 56.3123H232.357L241.424 78.3128L239.828 78.1826L242.84 56.3123H247.66L243.443 86.6877H239.436L230.339 64.6872L231.966 64.8174L228.923 86.6877H224.104Z" fill="url(#paint33_linear_626_58)"/>
<path d="M255.811 86.6877L259.215 62.0402H252.468L253.281 56.3123H271.656L270.843 62.0402H264.125L260.691 86.6877H255.811Z" fill="url(#paint34_linear_626_58)"/>
<path d="M280.095 68.5492H290.247L289.494 74.0168H279.342L280.095 68.5492ZM278.71 81.0466H290.217L289.403 86.6877H273.077L277.294 56.3123H293.229L292.416 61.9534H281.361L278.71 81.0466Z" fill="url(#paint35_linear_626_58)"/>
<path d="M296.298 86.6877L300.516 56.3123H305.426L301.992 80.9598H312.565L311.751 86.6877H296.298Z" fill="url(#paint36_linear_626_58)"/>
<path d="M317.49 86.6877L321.708 56.3123H326.618L322.4 86.6877H317.49Z" fill="url(#paint37_linear_626_58)"/>
<path d="M341.472 87.2084C339.343 87.2084 337.496 86.6588 335.929 85.5595C334.383 84.4313 333.178 82.8836 332.315 80.9164C331.471 78.9203 331.049 76.6204 331.049 74.0168C331.049 71.4421 331.361 69.041 331.983 66.8135C332.626 64.586 333.53 62.6622 334.694 61.0422C335.859 59.3932 337.255 58.1059 338.881 57.1802C340.508 56.2544 342.315 55.7916 344.303 55.7916C346.312 55.7916 348.049 56.2544 349.515 57.1802C351.001 58.077 352.196 59.3788 353.099 61.0856L349.605 65.1646C348.902 63.9496 348.099 63.0817 347.195 62.561C346.312 62.0402 345.277 61.7799 344.093 61.7799C342.848 61.7799 341.723 62.0836 340.719 62.6911C339.735 63.2697 338.891 64.0942 338.189 65.1646C337.486 66.2349 336.943 67.4933 336.562 68.9398C336.18 70.3573 335.99 71.905 335.99 73.5829C335.99 75.1161 336.221 76.4613 336.682 77.6185C337.144 78.7467 337.827 79.629 338.731 80.2655C339.655 80.9019 340.779 81.2201 342.104 81.2201C343.109 81.2201 344.073 80.9742 344.996 80.4824C345.92 79.9906 346.814 79.224 347.677 78.1826L349.545 83.52C348.481 84.7061 347.245 85.6173 345.84 86.2538C344.454 86.8902 342.998 87.2084 341.472 87.2084ZM345.267 82.4352L346.834 71.0227H351.292L349.545 83.52L345.267 82.4352Z" fill="url(#paint38_linear_626_58)"/>
<path d="M363.657 68.5492H373.808L373.055 74.0168H362.904L363.657 68.5492ZM362.271 81.0466H373.778L372.965 86.6877H356.638L360.855 56.3123H376.79L375.977 61.9534H364.922L362.271 81.0466Z" fill="url(#paint39_linear_626_58)"/>
<path d="M379.86 86.6877L384.077 56.3123H388.114L397.181 78.3128L395.584 78.1826L398.596 56.3123H403.416L399.199 86.6877H395.193L386.095 64.6872L387.722 64.8174L384.68 86.6877H379.86Z" fill="url(#paint40_linear_626_58)"/>
<path d="M411.568 86.6877L414.972 62.0402H408.224L409.037 56.3123H427.412L426.599 62.0402H419.882L416.448 86.6877H411.568Z" fill="url(#paint41_linear_626_58)"/>
<path d="M435.852 68.5492H446.003L445.25 74.0168H435.099L435.852 68.5492ZM434.466 81.0466H445.973L445.16 86.6877H428.833L433.05 56.3123H448.985L448.172 61.9534H437.117L434.466 81.0466Z" fill="url(#paint42_linear_626_58)"/>
<path d="M459.405 87.2084C458.26 87.2084 457.146 87.0493 456.061 86.7311C454.997 86.4418 454.023 86.0368 453.139 85.5161C452.276 84.9954 451.543 84.4313 450.94 83.8237L452.928 78.3996C453.591 79.0649 454.294 79.6435 455.037 80.1353C455.8 80.5982 456.593 80.9598 457.417 81.2201C458.24 81.4516 459.063 81.5673 459.887 81.5673C460.79 81.5673 461.564 81.4226 462.206 81.1333C462.869 80.8441 463.371 80.4391 463.712 79.9183C464.074 79.3976 464.255 78.7612 464.255 78.009C464.255 77.3147 464.064 76.7506 463.682 76.3167C463.301 75.8827 462.799 75.5211 462.176 75.2318C461.574 74.9136 460.901 74.6099 460.158 74.3206C459.415 74.0313 458.662 73.6986 457.899 73.3225C457.156 72.9175 456.473 72.4257 455.85 71.8472C455.248 71.2396 454.756 70.473 454.374 69.5473C453.993 68.6216 453.802 67.4644 453.802 66.0758C453.802 63.9929 454.194 62.1849 454.977 60.6516C455.78 59.1184 456.905 57.9323 458.35 57.0934C459.796 56.2255 461.493 55.7916 463.441 55.7916C464.867 55.7916 466.212 56.023 467.478 56.4859C468.743 56.9198 469.827 57.5563 470.731 58.3952L468.893 63.776C468.09 62.9949 467.197 62.4163 466.213 62.0402C465.229 61.6352 464.214 61.4327 463.17 61.4327C462.226 61.4327 461.413 61.5918 460.73 61.9101C460.068 62.2283 459.555 62.6767 459.194 63.2552C458.853 63.8049 458.682 64.4413 458.682 65.1646C458.682 65.8878 458.863 66.4808 459.224 66.9437C459.606 67.3776 460.108 67.7537 460.73 68.0719C461.353 68.3612 462.035 68.6505 462.779 68.9398C463.522 69.2291 464.265 69.5618 465.008 69.9378C465.751 70.3139 466.433 70.7912 467.056 71.3698C467.678 71.9484 468.181 72.6861 468.562 73.5829C468.944 74.4508 469.134 75.5501 469.134 76.8808C469.134 78.9637 468.733 80.7862 467.93 82.3484C467.126 83.8816 465.992 85.0821 464.526 85.95C463.08 86.789 461.373 87.2084 459.405 87.2084Z" fill="url(#paint43_linear_626_58)"/>
<path d="M485.819 86.6877L490.037 56.3123H498.561C501.192 56.3123 503.22 57.1512 504.646 58.8291C506.092 60.4781 506.815 62.7924 506.815 65.7721C506.815 68.3178 506.403 70.5454 505.58 72.4547C504.757 74.335 503.572 75.7815 502.026 76.794C500.499 77.8065 498.682 78.3128 496.573 78.3128H489.735L492.326 75.1017L490.729 86.6877H485.819ZM492.206 75.9261L490.489 72.5848H496.784C498.391 72.5848 499.636 72.0641 500.519 71.0227C501.423 69.9523 501.875 68.4046 501.875 66.3796C501.875 64.9042 501.534 63.8194 500.851 63.1251C500.168 62.4019 499.204 62.0402 497.959 62.0402H492.025L494.615 58.6122L492.206 75.9261Z" fill="url(#paint44_linear_626_58)"/>
<path d="M506.77 86.6877L520.385 56.3123H525.235L530.416 86.6877H525.536L521.44 59.7838H523.368L511.981 86.6877H506.77ZM512.403 80.1787L514.391 74.8413H525.265L525.838 80.1787H512.403Z" fill="url(#paint45_linear_626_58)"/>
<path d="M535.616 86.6877L539.834 56.3123H548.419C551.049 56.3123 553.078 57.1368 554.503 58.7857C555.949 60.4347 556.672 62.749 556.672 65.7287C556.672 68.2744 556.25 70.4875 555.407 72.3679C554.584 74.2193 553.399 75.6513 551.853 76.6638C550.326 77.6763 548.519 78.1826 546.43 78.1826H539.562L542.123 75.1017L540.526 86.6877H535.616ZM549.172 86.6877L544.864 75.6658H549.985L554.323 86.6877H549.172ZM542.002 75.9261L540.315 72.5848H546.611C548.238 72.5848 549.493 72.0641 550.376 71.0227C551.28 69.9523 551.732 68.4046 551.732 66.3796C551.732 64.9042 551.381 63.8194 550.678 63.1251C549.995 62.4019 549.031 62.0402 547.786 62.0402H541.852L544.412 58.6122L542.002 75.9261Z" fill="url(#paint46_linear_626_58)"/>
<path d="M558.008 86.6877L571.624 56.3123H576.474L581.655 86.6877H576.775L572.678 59.7838H574.606L563.219 86.6877H558.008ZM563.641 80.1787L565.629 74.8413H576.504L577.076 80.1787H563.641Z" fill="url(#paint47_linear_626_58)"/>
<path d="M609.483 87.2084C607.334 87.2084 605.477 86.6588 603.91 85.5595C602.364 84.4313 601.169 82.8836 600.326 80.9164C599.482 78.9203 599.06 76.6204 599.06 74.0168C599.06 71.4421 599.372 69.041 599.994 66.8135C600.637 64.586 601.531 62.6622 602.675 61.0422C603.84 59.3932 605.216 58.1059 606.802 57.1802C608.409 56.2544 610.196 55.7916 612.164 55.7916C614.052 55.7916 615.718 56.2544 617.164 57.1802C618.61 58.1059 619.705 59.4366 620.448 61.1724L616.923 65.3381C616.381 64.181 615.688 63.2986 614.845 62.6911C614.001 62.0836 612.997 61.7799 611.833 61.7799C610.648 61.7799 609.573 62.0836 608.609 62.6911C607.645 63.2697 606.812 64.1086 606.109 65.2079C605.426 66.2783 604.904 67.5367 604.543 68.9832C604.181 70.4296 604.001 71.9629 604.001 73.5829C604.001 75.1161 604.231 76.4613 604.693 77.6185C605.155 78.7467 605.828 79.629 606.712 80.2655C607.595 80.9019 608.66 81.2201 609.905 81.2201C610.989 81.2201 612.003 80.9453 612.947 80.3957C613.891 79.8171 614.744 78.9203 615.507 77.7053L618.399 81.9578C617.295 83.8093 615.979 85.1545 614.453 85.9934C612.947 86.8034 611.29 87.2084 609.483 87.2084Z" fill="url(#paint48_linear_626_58)"/>
<path d="M620.348 86.6877L633.964 56.3123H638.814L643.995 86.6877H639.115L635.018 59.7838H636.946L625.56 86.6877H620.348ZM625.981 80.1787L627.969 74.8413H638.844L639.416 80.1787H625.981Z" fill="url(#paint49_linear_626_58)"/>
<path d="M649.195 86.6877L653.412 56.3123H662.238C664.407 56.3123 666.264 56.833 667.811 57.8745C669.377 58.887 670.572 60.3479 671.395 62.2572C672.219 64.1376 672.63 66.3796 672.63 68.9832C672.63 71.6736 672.309 74.1036 671.666 76.2733C671.044 78.443 670.15 80.3089 668.985 81.871C667.821 83.4043 666.435 84.5904 664.828 85.4293C663.222 86.2682 661.445 86.6877 659.497 86.6877H649.195ZM654.888 80.9164H659.647C661.354 80.9164 662.8 80.4101 663.985 79.3976C665.19 78.3851 666.104 77.011 666.726 75.2752C667.369 73.5395 667.69 71.5723 667.69 69.3737C667.69 67.8694 667.469 66.5821 667.027 65.5117C666.586 64.4124 665.913 63.5735 665.009 62.9949C664.126 62.3874 663.021 62.0836 661.696 62.0836H657.509L654.888 80.9164Z" fill="url(#paint50_linear_626_58)"/>
<path d="M674.028 86.6877L687.644 56.3123H692.494L697.675 86.6877H692.795L688.698 59.7838H690.626L679.239 86.6877H674.028ZM679.661 80.1787L681.649 74.8413H692.524L693.096 80.1787H679.661Z" fill="url(#paint51_linear_626_58)"/>
<path d="M718.786 86.6877L722.189 62.0402H715.442L716.255 56.3123H734.63L733.817 62.0402H727.099L723.665 86.6877H718.786Z" fill="url(#paint52_linear_626_58)"/>
<path d="M736.051 86.6877L740.268 56.3123H745.178L740.961 86.6877H736.051Z" fill="url(#paint53_linear_626_58)"/>
<path d="M748.947 86.6877L753.164 56.3123H761.689C764.32 56.3123 766.348 57.1512 767.774 58.8291C769.22 60.4781 769.943 62.7924 769.943 65.7721C769.943 68.3178 769.531 70.5454 768.708 72.4547C767.885 74.335 766.7 75.7815 765.153 76.794C763.627 77.8065 761.81 78.3128 759.701 78.3128H752.863L755.454 75.1017L753.857 86.6877H748.947ZM755.333 75.9261L753.616 72.5848H759.912C761.519 72.5848 762.764 72.0641 763.647 71.0227C764.551 69.9523 765.003 68.4046 765.003 66.3796C765.003 64.9042 764.661 63.8194 763.979 63.1251C763.296 62.4019 762.332 62.0402 761.087 62.0402H755.153L757.743 58.6122L755.333 75.9261Z" fill="url(#paint54_linear_626_58)"/>
<path d="M784.957 87.2084C782.828 87.2084 780.991 86.6588 779.444 85.5595C777.918 84.4313 776.743 82.8836 775.92 80.9164C775.097 78.9203 774.685 76.6204 774.685 74.0168C774.685 71.4132 774.996 69.0121 775.619 66.8135C776.241 64.586 777.125 62.6622 778.27 61.0422C779.434 59.3932 780.81 58.1059 782.396 57.1802C784.003 56.2544 785.78 55.7916 787.728 55.7916C789.857 55.7916 791.684 56.3557 793.21 57.4839C794.757 58.5832 795.942 60.1309 796.765 62.127C797.588 64.0942 798 66.3796 798 68.9832C798 71.5868 797.689 74.0024 797.066 76.2299C796.444 78.4285 795.55 80.3523 794.385 82.0012C793.241 83.6212 791.865 84.8941 790.258 85.8198C788.672 86.7456 786.905 87.2084 784.957 87.2084ZM785.379 81.2201C786.563 81.2201 787.628 80.9164 788.572 80.3089C789.535 79.6724 790.349 78.8046 791.011 77.7053C791.674 76.606 792.176 75.3476 792.518 73.93C792.879 72.4836 793.06 70.9648 793.06 69.3737C793.06 67.8694 792.839 66.5531 792.397 65.4249C791.955 64.2678 791.303 63.371 790.439 62.7345C789.596 62.0981 788.551 61.7799 787.306 61.7799C786.122 61.7799 785.057 62.0981 784.113 62.7345C783.169 63.342 782.356 64.1954 781.673 65.2947C781.011 66.394 780.499 67.6669 780.137 69.1134C779.796 70.5309 779.625 72.0352 779.625 73.6263C779.625 75.1306 779.846 76.4613 780.288 77.6185C780.75 78.7467 781.402 79.629 782.246 80.2655C783.109 80.9019 784.154 81.2201 785.379 81.2201Z" fill="url(#paint55_linear_626_58)"/>
<path d="M2.7713 142.479L6.9885 112.104H15.8145C17.9833 112.104 19.8409 112.625 21.3872 113.666C22.9536 114.679 24.1485 116.139 24.9718 118.049C25.7952 119.929 26.2069 122.171 26.2069 124.775C26.2069 127.465 25.8856 129.895 25.243 132.065C24.6204 134.235 23.7268 136.1 22.562 137.663C21.3973 139.196 20.0116 140.382 18.4051 141.221C16.7985 142.06 15.0213 142.479 13.0733 142.479H2.7713ZM8.46452 136.708H13.2239C14.9309 136.708 16.3768 136.202 17.5616 135.189C18.7665 134.177 19.6803 132.803 20.3028 131.067C20.9454 129.331 21.2667 127.364 21.2667 125.165C21.2667 123.661 21.0458 122.374 20.604 121.303C20.1622 120.204 19.4895 119.365 18.5858 118.786C17.7022 118.179 16.5977 117.875 15.2723 117.875H11.0852L8.46452 136.708Z" fill="url(#paint56_linear_626_58)"/>
<path d="M37.6889 124.341H47.8403L47.0872 129.808H36.9358L37.6889 124.341ZM36.3032 136.838H47.8101L46.9968 142.479H30.6702L34.8874 112.104H50.8224L50.0091 117.745H38.954L36.3032 136.838Z" fill="url(#paint57_linear_626_58)"/>
<path d="M72.785 143C71.6404 143 70.5258 142.841 69.4414 142.523C68.3771 142.233 67.4031 141.828 66.5195 141.308C65.656 140.787 64.923 140.223 64.3205 139.615L66.3086 134.191C66.9713 134.856 67.6742 135.435 68.4172 135.927C69.1804 136.39 69.9736 136.751 70.7969 137.012C71.6203 137.243 72.4437 137.359 73.267 137.359C74.1707 137.359 74.9438 137.214 75.5865 136.925C76.2492 136.636 76.7512 136.231 77.0926 135.71C77.4541 135.189 77.6348 134.553 77.6348 133.801C77.6348 133.106 77.4441 132.542 77.0625 132.108C76.6809 131.674 76.1789 131.313 75.5563 131.023C74.9539 130.705 74.2812 130.401 73.5381 130.112C72.7951 129.823 72.042 129.49 71.2789 129.114C70.5359 128.709 69.8531 128.217 69.2305 127.639C68.6281 127.031 68.1361 126.265 67.7545 125.339C67.373 124.413 67.1822 123.256 67.1822 121.867C67.1822 119.785 67.5738 117.976 68.357 116.443C69.1603 114.91 70.2848 113.724 71.7307 112.885C73.1766 112.017 74.8736 111.583 76.8215 111.583C78.2473 111.583 79.5928 111.815 80.858 112.277C82.1231 112.711 83.2076 113.348 84.1112 114.187L82.2737 119.568C81.4705 118.786 80.5768 118.208 79.5928 117.832C78.6088 117.427 77.5947 117.224 76.5504 117.224C75.6066 117.224 74.7932 117.383 74.1105 117.702C73.4477 118.02 72.9357 118.468 72.5742 119.047C72.2328 119.596 72.0621 120.233 72.0621 120.956C72.0621 121.679 72.2428 122.272 72.6043 122.735C72.9859 123.169 73.4879 123.545 74.1105 123.863C74.733 124.153 75.4158 124.442 76.1588 124.731C76.9018 125.021 77.6449 125.353 78.3879 125.729C79.1309 126.105 79.8137 126.583 80.4362 127.161C81.0588 127.74 81.5608 128.478 81.9424 129.374C82.3239 130.242 82.5147 131.342 82.5147 132.672C82.5147 134.755 82.1131 136.578 81.3098 138.14C80.5065 139.673 79.3719 140.874 77.9059 141.742C76.46 142.581 74.7531 143 72.785 143Z" fill="url(#paint58_linear_626_58)"/>
<path d="M94.6752 124.341H104.827L104.074 129.808H93.9221L94.6752 124.341ZM93.2895 136.838H104.796L103.983 142.479H87.6565L91.8738 112.104H107.809L106.995 117.745H95.9403L93.2895 136.838Z" fill="url(#paint59_linear_626_58)"/>
<path d="M121.963 143C119.835 143 117.987 142.45 116.421 141.351C114.875 140.223 113.67 138.675 112.806 136.708C111.963 134.712 111.541 132.412 111.541 129.808C111.541 127.234 111.852 124.833 112.475 122.605C113.117 120.378 114.021 118.454 115.186 116.834C116.351 115.185 117.746 113.897 119.373 112.972C120.999 112.046 122.807 111.583 124.795 111.583C126.803 111.583 128.54 112.046 130.006 112.972C131.492 113.869 132.687 115.17 133.591 116.877L130.097 120.956C129.394 119.741 128.59 118.873 127.687 118.353C126.803 117.832 125.769 117.571 124.584 117.571C123.339 117.571 122.214 117.875 121.21 118.483C120.226 119.061 119.383 119.886 118.68 120.956C117.977 122.026 117.435 123.285 117.053 124.731C116.672 126.149 116.481 127.697 116.481 129.374C116.481 130.908 116.712 132.253 117.174 133.41C117.636 134.538 118.319 135.421 119.222 136.057C120.146 136.693 121.271 137.012 122.596 137.012C123.6 137.012 124.564 136.766 125.488 136.274C126.412 135.782 127.305 135.016 128.169 133.974L130.036 139.312C128.972 140.498 127.737 141.409 126.331 142.045C124.946 142.682 123.49 143 121.963 143ZM125.759 138.227L127.325 126.814H131.783L130.036 139.312L125.759 138.227Z" fill="url(#paint60_linear_626_58)"/>
<path d="M137.13 142.479L141.347 112.104H145.323L151.318 133.627L149.209 133.584L160.897 112.104H165.084L160.897 142.479H156.318L159.12 122.128H160.053L150.745 139.268H148.576L143.606 122.084L144.51 122.215L141.708 142.479H137.13Z" fill="url(#paint61_linear_626_58)"/>
<path d="M175.93 124.341H186.082L185.329 129.808H175.177L175.93 124.341ZM174.545 136.838H186.052L185.238 142.479H168.912L173.129 112.104H189.064L188.251 117.745H177.196L174.545 136.838Z" fill="url(#paint62_linear_626_58)"/>
<path d="M192.133 142.479L196.351 112.104H200.387L209.454 134.104L207.858 133.974L210.87 112.104H215.689L211.472 142.479H207.466L198.369 120.479L199.995 120.609L196.953 142.479H192.133Z" fill="url(#paint63_linear_626_58)"/>
<path d="M223.841 142.479L227.245 117.832H220.498L221.311 112.104H239.686L238.873 117.832H232.155L228.721 142.479H223.841Z" fill="url(#paint64_linear_626_58)"/>
<path d="M251.747 143C249.618 143 247.781 142.45 246.235 141.351C244.708 140.223 243.534 138.675 242.71 136.708C241.887 134.712 241.475 132.412 241.475 129.808C241.475 127.205 241.786 124.804 242.409 122.605C243.031 120.378 243.915 118.454 245.06 116.834C246.225 115.185 247.6 113.897 249.187 112.972C250.793 112.046 252.57 111.583 254.518 111.583C256.647 111.583 258.474 112.147 260.001 113.275C261.547 114.375 262.732 115.922 263.555 117.919C264.379 119.886 264.79 122.171 264.79 124.775C264.79 127.378 264.479 129.794 263.856 132.021C263.234 134.22 262.34 136.144 261.175 137.793C260.031 139.413 258.655 140.686 257.049 141.611C255.462 142.537 253.695 143 251.747 143ZM252.169 137.012C253.354 137.012 254.418 136.708 255.362 136.1C256.326 135.464 257.139 134.596 257.802 133.497C258.464 132.398 258.966 131.139 259.308 129.722C259.669 128.275 259.85 126.756 259.85 125.165C259.85 123.661 259.629 122.345 259.187 121.216C258.746 120.059 258.093 119.163 257.229 118.526C256.386 117.89 255.342 117.571 254.097 117.571C252.912 117.571 251.847 117.89 250.904 118.526C249.96 119.134 249.146 119.987 248.464 121.086C247.801 122.186 247.289 123.458 246.927 124.905C246.586 126.322 246.415 127.827 246.415 129.418C246.415 130.922 246.636 132.253 247.078 133.41C247.54 134.538 248.193 135.421 249.036 136.057C249.899 136.693 250.944 137.012 252.169 137.012Z" fill="url(#paint65_linear_626_58)"/>
<path d="M444.019 12.7577H454.17L453.417 18.2252H443.266L444.019 12.7577ZM442.633 25.255H454.14L453.327 30.8961H437L441.217 0.52072H457.152L456.339 6.16186H445.284L442.633 25.255Z" fill="url(#paint66_linear_626_58)"/>
<defs>
<linearGradient id="paint0_linear_626_58" x1="1.89791" y1="71.1892" x2="810.912" y2="71.1892" gradientUnits="userSpaceOnUse">
<stop stop-color="#F67E01"/>
<stop offset="1" stop-color="#FEBD16"/>
</linearGradient>
<linearGradient id="paint1_linear_626_58" x1="1.89791" y1="71.1892" x2="810.912" y2="71.1892" gradientUnits="userSpaceOnUse">
<stop stop-color="#F67E01"/>
<stop offset="1" stop-color="#FEBD16"/>
</linearGradient>
<linearGradient id="paint2_linear_626_58" x1="1.89791" y1="71.1892" x2="810.912" y2="71.1892" gradientUnits="userSpaceOnUse">
<stop stop-color="#F67E01"/>
<stop offset="1" stop-color="#FEBD16"/>
</linearGradient>
<linearGradient id="paint3_linear_626_58" x1="1.89791" y1="71.1892" x2="810.912" y2="71.1892" gradientUnits="userSpaceOnUse">
<stop stop-color="#F67E01"/>
<stop offset="1" stop-color="#FEBD16"/>
</linearGradient>
<linearGradient id="paint4_linear_626_58" x1="1.89791" y1="71.1892" x2="810.912" y2="71.1892" gradientUnits="userSpaceOnUse">
<stop stop-color="#F67E01"/>
<stop offset="1" stop-color="#FEBD16"/>
</linearGradient>
<linearGradient id="paint5_linear_626_58" x1="1.89791" y1="71.1892" x2="810.912" y2="71.1892" gradientUnits="userSpaceOnUse">
<stop stop-color="#F67E01"/>
<stop offset="1" stop-color="#FEBD16"/>
</linearGradient>
<linearGradient id="paint6_linear_626_58" x1="1.89791" y1="71.1892" x2="810.912" y2="71.1892" gradientUnits="userSpaceOnUse">
<stop stop-color="#F67E01"/>
<stop offset="1" stop-color="#FEBD16"/>
</linearGradient>
<linearGradient id="paint7_linear_626_58" x1="1.89791" y1="71.1892" x2="810.912" y2="71.1892" gradientUnits="userSpaceOnUse">
<stop stop-color="#F67E01"/>
<stop offset="1" stop-color="#FEBD16"/>
</linearGradient>
<linearGradient id="paint8_linear_626_58" x1="1.89791" y1="71.1892" x2="810.912" y2="71.1892" gradientUnits="userSpaceOnUse">
<stop stop-color="#F67E01"/>
<stop offset="1" stop-color="#FEBD16"/>
</linearGradient>
<linearGradient id="paint9_linear_626_58" x1="1.89791" y1="71.1892" x2="810.912" y2="71.1892" gradientUnits="userSpaceOnUse">
<stop stop-color="#F67E01"/>
<stop offset="1" stop-color="#FEBD16"/>
</linearGradient>
<linearGradient id="paint10_linear_626_58" x1="1.89791" y1="71.1892" x2="810.912" y2="71.1892" gradientUnits="userSpaceOnUse">
<stop stop-color="#F67E01"/>
<stop offset="1" stop-color="#FEBD16"/>
</linearGradient>
<linearGradient id="paint11_linear_626_58" x1="1.89791" y1="71.1892" x2="810.912" y2="71.1892" gradientUnits="userSpaceOnUse">
<stop stop-color="#F67E01"/>
<stop offset="1" stop-color="#FEBD16"/>
</linearGradient>
<linearGradient id="paint12_linear_626_58" x1="1.89791" y1="71.1892" x2="810.912" y2="71.1892" gradientUnits="userSpaceOnUse">
<stop stop-color="#F67E01"/>
<stop offset="1" stop-color="#FEBD16"/>
</linearGradient>
<linearGradient id="paint13_linear_626_58" x1="1.89791" y1="71.1892" x2="810.912" y2="71.1892" gradientUnits="userSpaceOnUse">
<stop stop-color="#F67E01"/>
<stop offset="1" stop-color="#FEBD16"/>
</linearGradient>
<linearGradient id="paint14_linear_626_58" x1="1.89791" y1="71.1892" x2="810.912" y2="71.1892" gradientUnits="userSpaceOnUse">
<stop stop-color="#F67E01"/>
<stop offset="1" stop-color="#FEBD16"/>
</linearGradient>
<linearGradient id="paint15_linear_626_58" x1="1.89791" y1="71.1892" x2="810.912" y2="71.1892" gradientUnits="userSpaceOnUse">
<stop stop-color="#F67E01"/>
<stop offset="1" stop-color="#FEBD16"/>
</linearGradient>
<linearGradient id="paint16_linear_626_58" x1="1.89791" y1="71.1892" x2="810.912" y2="71.1892" gradientUnits="userSpaceOnUse">
<stop stop-color="#F67E01"/>
<stop offset="1" stop-color="#FEBD16"/>
</linearGradient>
<linearGradient id="paint17_linear_626_58" x1="1.89791" y1="71.1892" x2="810.912" y2="71.1892" gradientUnits="userSpaceOnUse">
<stop stop-color="#F67E01"/>
<stop offset="1" stop-color="#FEBD16"/>
</linearGradient>
<linearGradient id="paint18_linear_626_58" x1="1.89791" y1="71.1892" x2="810.912" y2="71.1892" gradientUnits="userSpaceOnUse">
<stop stop-color="#F67E01"/>
<stop offset="1" stop-color="#FEBD16"/>
</linearGradient>
<linearGradient id="paint19_linear_626_58" x1="1.89791" y1="71.1892" x2="810.912" y2="71.1892" gradientUnits="userSpaceOnUse">
<stop stop-color="#F67E01"/>
<stop offset="1" stop-color="#FEBD16"/>
</linearGradient>
<linearGradient id="paint20_linear_626_58" x1="1.89791" y1="71.1892" x2="810.912" y2="71.1892" gradientUnits="userSpaceOnUse">
<stop stop-color="#F67E01"/>
<stop offset="1" stop-color="#FEBD16"/>
</linearGradient>
<linearGradient id="paint21_linear_626_58" x1="1.89791" y1="71.1892" x2="810.912" y2="71.1892" gradientUnits="userSpaceOnUse">
<stop stop-color="#F67E01"/>
<stop offset="1" stop-color="#FEBD16"/>
</linearGradient>
<linearGradient id="paint22_linear_626_58" x1="1.89791" y1="71.1892" x2="810.912" y2="71.1892" gradientUnits="userSpaceOnUse">
<stop stop-color="#F67E01"/>
<stop offset="1" stop-color="#FEBD16"/>
</linearGradient>
<linearGradient id="paint23_linear_626_58" x1="1.89791" y1="71.1892" x2="810.912" y2="71.1892" gradientUnits="userSpaceOnUse">
<stop stop-color="#F67E01"/>
<stop offset="1" stop-color="#FEBD16"/>
</linearGradient>
<linearGradient id="paint24_linear_626_58" x1="1.89791" y1="71.1892" x2="810.912" y2="71.1892" gradientUnits="userSpaceOnUse">
<stop stop-color="#F67E01"/>
<stop offset="1" stop-color="#FEBD16"/>
</linearGradient>
<linearGradient id="paint25_linear_626_58" x1="1.89791" y1="71.1892" x2="810.912" y2="71.1892" gradientUnits="userSpaceOnUse">
<stop stop-color="#F67E01"/>
<stop offset="1" stop-color="#FEBD16"/>
</linearGradient>
<linearGradient id="paint26_linear_626_58" x1="1.89791" y1="71.1892" x2="810.912" y2="71.1892" gradientUnits="userSpaceOnUse">
<stop stop-color="#F67E01"/>
<stop offset="1" stop-color="#FEBD16"/>
</linearGradient>
<linearGradient id="paint27_linear_626_58" x1="1.89791" y1="71.1892" x2="810.912" y2="71.1892" gradientUnits="userSpaceOnUse">
<stop stop-color="#F67E01"/>
<stop offset="1" stop-color="#FEBD16"/>
</linearGradient>
<linearGradient id="paint28_linear_626_58" x1="1.89791" y1="71.1892" x2="810.912" y2="71.1892" gradientUnits="userSpaceOnUse">
<stop stop-color="#F67E01"/>
<stop offset="1" stop-color="#FEBD16"/>
</linearGradient>
<linearGradient id="paint29_linear_626_58" x1="1.89791" y1="71.1892" x2="810.912" y2="71.1892" gradientUnits="userSpaceOnUse">
<stop stop-color="#F67E01"/>
<stop offset="1" stop-color="#FEBD16"/>
</linearGradient>
<linearGradient id="paint30_linear_626_58" x1="1.89791" y1="71.1892" x2="810.912" y2="71.1892" gradientUnits="userSpaceOnUse">
<stop stop-color="#F67E01"/>
<stop offset="1" stop-color="#FEBD16"/>
</linearGradient>
<linearGradient id="paint31_linear_626_58" x1="1.89791" y1="71.1892" x2="810.912" y2="71.1892" gradientUnits="userSpaceOnUse">
<stop stop-color="#F67E01"/>
<stop offset="1" stop-color="#FEBD16"/>
</linearGradient>
<linearGradient id="paint32_linear_626_58" x1="1.89791" y1="71.1892" x2="810.912" y2="71.1892" gradientUnits="userSpaceOnUse">
<stop stop-color="#F67E01"/>
<stop offset="1" stop-color="#FEBD16"/>
</linearGradient>
<linearGradient id="paint33_linear_626_58" x1="1.89791" y1="71.1892" x2="810.912" y2="71.1892" gradientUnits="userSpaceOnUse">
<stop stop-color="#F67E01"/>
<stop offset="1" stop-color="#FEBD16"/>
</linearGradient>
<linearGradient id="paint34_linear_626_58" x1="1.89791" y1="71.1892" x2="810.912" y2="71.1892" gradientUnits="userSpaceOnUse">
<stop stop-color="#F67E01"/>
<stop offset="1" stop-color="#FEBD16"/>
</linearGradient>
<linearGradient id="paint35_linear_626_58" x1="1.89791" y1="71.1892" x2="810.912" y2="71.1892" gradientUnits="userSpaceOnUse">
<stop stop-color="#F67E01"/>
<stop offset="1" stop-color="#FEBD16"/>
</linearGradient>
<linearGradient id="paint36_linear_626_58" x1="1.89791" y1="71.1892" x2="810.912" y2="71.1892" gradientUnits="userSpaceOnUse">
<stop stop-color="#F67E01"/>
<stop offset="1" stop-color="#FEBD16"/>
</linearGradient>
<linearGradient id="paint37_linear_626_58" x1="1.89791" y1="71.1892" x2="810.912" y2="71.1892" gradientUnits="userSpaceOnUse">
<stop stop-color="#F67E01"/>
<stop offset="1" stop-color="#FEBD16"/>
</linearGradient>
<linearGradient id="paint38_linear_626_58" x1="1.89791" y1="71.1892" x2="810.912" y2="71.1892" gradientUnits="userSpaceOnUse">
<stop stop-color="#F67E01"/>
<stop offset="1" stop-color="#FEBD16"/>
</linearGradient>
<linearGradient id="paint39_linear_626_58" x1="1.89791" y1="71.1892" x2="810.912" y2="71.1892" gradientUnits="userSpaceOnUse">
<stop stop-color="#F67E01"/>
<stop offset="1" stop-color="#FEBD16"/>
</linearGradient>
<linearGradient id="paint40_linear_626_58" x1="1.89791" y1="71.1892" x2="810.912" y2="71.1892" gradientUnits="userSpaceOnUse">
<stop stop-color="#F67E01"/>
<stop offset="1" stop-color="#FEBD16"/>
</linearGradient>
<linearGradient id="paint41_linear_626_58" x1="1.89791" y1="71.1892" x2="810.912" y2="71.1892" gradientUnits="userSpaceOnUse">
<stop stop-color="#F67E01"/>
<stop offset="1" stop-color="#FEBD16"/>
</linearGradient>
<linearGradient id="paint42_linear_626_58" x1="1.89791" y1="71.1892" x2="810.912" y2="71.1892" gradientUnits="userSpaceOnUse">
<stop stop-color="#F67E01"/>
<stop offset="1" stop-color="#FEBD16"/>
</linearGradient>
<linearGradient id="paint43_linear_626_58" x1="1.89791" y1="71.1892" x2="810.912" y2="71.1892" gradientUnits="userSpaceOnUse">
<stop stop-color="#F67E01"/>
<stop offset="1" stop-color="#FEBD16"/>
</linearGradient>
<linearGradient id="paint44_linear_626_58" x1="1.89791" y1="71.1892" x2="810.912" y2="71.1892" gradientUnits="userSpaceOnUse">
<stop stop-color="#F67E01"/>
<stop offset="1" stop-color="#FEBD16"/>
</linearGradient>
<linearGradient id="paint45_linear_626_58" x1="1.89791" y1="71.1892" x2="810.912" y2="71.1892" gradientUnits="userSpaceOnUse">
<stop stop-color="#F67E01"/>
<stop offset="1" stop-color="#FEBD16"/>
</linearGradient>
<linearGradient id="paint46_linear_626_58" x1="1.89791" y1="71.1892" x2="810.912" y2="71.1892" gradientUnits="userSpaceOnUse">
<stop stop-color="#F67E01"/>
<stop offset="1" stop-color="#FEBD16"/>
</linearGradient>
<linearGradient id="paint47_linear_626_58" x1="1.89791" y1="71.1892" x2="810.912" y2="71.1892" gradientUnits="userSpaceOnUse">
<stop stop-color="#F67E01"/>
<stop offset="1" stop-color="#FEBD16"/>
</linearGradient>
<linearGradient id="paint48_linear_626_58" x1="1.89791" y1="71.1892" x2="810.912" y2="71.1892" gradientUnits="userSpaceOnUse">
<stop stop-color="#F67E01"/>
<stop offset="1" stop-color="#FEBD16"/>
</linearGradient>
<linearGradient id="paint49_linear_626_58" x1="1.89791" y1="71.1892" x2="810.912" y2="71.1892" gradientUnits="userSpaceOnUse">
<stop stop-color="#F67E01"/>
<stop offset="1" stop-color="#FEBD16"/>
</linearGradient>
<linearGradient id="paint50_linear_626_58" x1="1.89791" y1="71.1892" x2="810.912" y2="71.1892" gradientUnits="userSpaceOnUse">
<stop stop-color="#F67E01"/>
<stop offset="1" stop-color="#FEBD16"/>
</linearGradient>
<linearGradient id="paint51_linear_626_58" x1="1.89791" y1="71.1892" x2="810.912" y2="71.1892" gradientUnits="userSpaceOnUse">
<stop stop-color="#F67E01"/>
<stop offset="1" stop-color="#FEBD16"/>
</linearGradient>
<linearGradient id="paint52_linear_626_58" x1="1.89791" y1="71.1892" x2="810.912" y2="71.1892" gradientUnits="userSpaceOnUse">
<stop stop-color="#F67E01"/>
<stop offset="1" stop-color="#FEBD16"/>
</linearGradient>
<linearGradient id="paint53_linear_626_58" x1="1.89791" y1="71.1892" x2="810.912" y2="71.1892" gradientUnits="userSpaceOnUse">
<stop stop-color="#F67E01"/>
<stop offset="1" stop-color="#FEBD16"/>
</linearGradient>
<linearGradient id="paint54_linear_626_58" x1="1.89791" y1="71.1892" x2="810.912" y2="71.1892" gradientUnits="userSpaceOnUse">
<stop stop-color="#F67E01"/>
<stop offset="1" stop-color="#FEBD16"/>
</linearGradient>
<linearGradient id="paint55_linear_626_58" x1="1.89791" y1="71.1892" x2="810.912" y2="71.1892" gradientUnits="userSpaceOnUse">
<stop stop-color="#F67E01"/>
<stop offset="1" stop-color="#FEBD16"/>
</linearGradient>
<linearGradient id="paint56_linear_626_58" x1="1.89791" y1="71.1892" x2="810.912" y2="71.1892" gradientUnits="userSpaceOnUse">
<stop stop-color="#F67E01"/>
<stop offset="1" stop-color="#FEBD16"/>
</linearGradient>
<linearGradient id="paint57_linear_626_58" x1="1.89791" y1="71.1892" x2="810.912" y2="71.1892" gradientUnits="userSpaceOnUse">
<stop stop-color="#F67E01"/>
<stop offset="1" stop-color="#FEBD16"/>
</linearGradient>
<linearGradient id="paint58_linear_626_58" x1="1.89791" y1="71.1892" x2="810.912" y2="71.1892" gradientUnits="userSpaceOnUse">
<stop stop-color="#F67E01"/>
<stop offset="1" stop-color="#FEBD16"/>
</linearGradient>
<linearGradient id="paint59_linear_626_58" x1="1.89791" y1="71.1892" x2="810.912" y2="71.1892" gradientUnits="userSpaceOnUse">
<stop stop-color="#F67E01"/>
<stop offset="1" stop-color="#FEBD16"/>
</linearGradient>
<linearGradient id="paint60_linear_626_58" x1="1.89791" y1="71.1892" x2="810.912" y2="71.1892" gradientUnits="userSpaceOnUse">
<stop stop-color="#F67E01"/>
<stop offset="1" stop-color="#FEBD16"/>
</linearGradient>
<linearGradient id="paint61_linear_626_58" x1="1.89791" y1="71.1892" x2="810.912" y2="71.1892" gradientUnits="userSpaceOnUse">
<stop stop-color="#F67E01"/>
<stop offset="1" stop-color="#FEBD16"/>
</linearGradient>
<linearGradient id="paint62_linear_626_58" x1="1.89791" y1="71.1892" x2="810.912" y2="71.1892" gradientUnits="userSpaceOnUse">
<stop stop-color="#F67E01"/>
<stop offset="1" stop-color="#FEBD16"/>
</linearGradient>
<linearGradient id="paint63_linear_626_58" x1="1.89791" y1="71.1892" x2="810.912" y2="71.1892" gradientUnits="userSpaceOnUse">
<stop stop-color="#F67E01"/>
<stop offset="1" stop-color="#FEBD16"/>
</linearGradient>
<linearGradient id="paint64_linear_626_58" x1="1.89791" y1="71.1892" x2="810.912" y2="71.1892" gradientUnits="userSpaceOnUse">
<stop stop-color="#F67E01"/>
<stop offset="1" stop-color="#FEBD16"/>
</linearGradient>
<linearGradient id="paint65_linear_626_58" x1="1.89791" y1="71.1892" x2="810.912" y2="71.1892" gradientUnits="userSpaceOnUse">
<stop stop-color="#F67E01"/>
<stop offset="1" stop-color="#FEBD16"/>
</linearGradient>
<linearGradient id="paint66_linear_626_58" x1="1.89791" y1="71.1892" x2="810.912" y2="71.1892" gradientUnits="userSpaceOnUse">
<stop stop-color="#F67E01"/>
<stop offset="1" stop-color="#FEBD16"/>
</linearGradient>
</defs>
</svg>
