<svg width="160" height="21" viewBox="0 0 160 21" fill="none" xmlns="http://www.w3.org/2000/svg">
<path d="M10.704 20.336C9.192 20.336 7.78267 20.0933 6.476 19.608C5.188 19.104 4.068 18.3947 3.116 17.48C2.164 16.5653 1.41733 15.492 0.876 14.26C0.353333 13.028 0.092 11.6747 0.092 10.2C0.092 8.72533 0.353333 7.372 0.876 6.14C1.41733 4.908 2.164 3.83467 3.116 2.92C4.08667 2.00533 5.216 1.30533 6.504 0.819998C7.792 0.315999 9.20133 0.0639997 10.732 0.0639997C12.4307 0.0639997 13.9613 0.362666 15.324 0.96C16.7053 1.53867 17.8627 2.39733 18.796 3.536L15.884 6.224C15.212 5.45867 14.4653 4.88933 13.644 4.516C12.8227 4.124 11.9267 3.928 10.956 3.928C10.0413 3.928 9.20133 4.07733 8.436 4.376C7.67067 4.67467 7.008 5.104 6.448 5.664C5.888 6.224 5.44933 6.88667 5.132 7.652C4.83333 8.41733 4.684 9.26667 4.684 10.2C4.684 11.1333 4.83333 11.9827 5.132 12.748C5.44933 13.5133 5.888 14.176 6.448 14.736C7.008 15.296 7.67067 15.7253 8.436 16.024C9.20133 16.3227 10.0413 16.472 10.956 16.472C11.9267 16.472 12.8227 16.2853 13.644 15.912C14.4653 15.52 15.212 14.932 15.884 14.148L18.796 16.836C17.8627 17.9747 16.7053 18.8427 15.324 19.44C13.9613 20.0373 12.4213 20.336 10.704 20.336ZM30.969 20.336C29.4197 20.336 27.9823 20.084 26.657 19.58C25.3503 19.076 24.2117 18.3667 23.241 17.452C22.289 16.5373 21.5423 15.464 21.001 14.232C20.4783 13 20.217 11.656 20.217 10.2C20.217 8.744 20.4783 7.4 21.001 6.168C21.5423 4.936 22.2983 3.86267 23.269 2.948C24.2397 2.03333 25.3783 1.324 26.685 0.819998C27.9917 0.315999 29.4103 0.0639997 30.941 0.0639997C32.4903 0.0639997 33.909 0.315999 35.197 0.819998C36.5037 1.324 37.633 2.03333 38.585 2.948C39.5557 3.86267 40.3117 4.936 40.853 6.168C41.3943 7.38133 41.665 8.72533 41.665 10.2C41.665 11.656 41.3943 13.0093 40.853 14.26C40.3117 15.492 39.5557 16.5653 38.585 17.48C37.633 18.376 36.5037 19.076 35.197 19.58C33.909 20.084 32.4997 20.336 30.969 20.336ZM30.941 16.472C31.8183 16.472 32.621 16.3227 33.349 16.024C34.0957 15.7253 34.749 15.296 35.309 14.736C35.869 14.176 36.2983 13.5133 36.597 12.748C36.9143 11.9827 37.073 11.1333 37.073 10.2C37.073 9.26667 36.9143 8.41733 36.597 7.652C36.2983 6.88667 35.869 6.224 35.309 5.664C34.7677 5.104 34.1237 4.67467 33.377 4.376C32.6303 4.07733 31.8183 3.928 30.941 3.928C30.0637 3.928 29.2517 4.07733 28.505 4.376C27.777 4.67467 27.133 5.104 26.573 5.664C26.013 6.224 25.5743 6.88667 25.257 7.652C24.9583 8.41733 24.809 9.26667 24.809 10.2C24.809 11.1147 24.9583 11.964 25.257 12.748C25.5743 13.5133 26.0037 14.176 26.545 14.736C27.105 15.296 27.7583 15.7253 28.505 16.024C29.2517 16.3227 30.0637 16.472 30.941 16.472ZM45.074 20V0.399999H48.826L60.39 14.512H58.57V0.399999H63.05V20H59.326L47.734 5.888H49.554V20H45.074ZM71.7473 20V4.096H65.4753V0.399999H82.5553V4.096H76.2833V20H71.7473ZM81.4355 20L90.1715 0.399999H94.6515L103.416 20H98.6555L91.4875 2.696H93.2795L86.0835 20H81.4355ZM85.8035 15.8L87.0075 12.356H97.0875L98.3195 15.8H85.8035ZM108.525 20V4.096H102.253V0.399999H119.333V4.096H113.061V20H108.525ZM131.02 20.336C129.47 20.336 128.033 20.084 126.708 19.58C125.401 19.076 124.262 18.3667 123.292 17.452C122.34 16.5373 121.593 15.464 121.052 14.232C120.529 13 120.268 11.656 120.268 10.2C120.268 8.744 120.529 7.4 121.052 6.168C121.593 4.936 122.349 3.86267 123.32 2.948C124.29 2.03333 125.429 1.324 126.736 0.819998C128.042 0.315999 129.461 0.0639997 130.992 0.0639997C132.541 0.0639997 133.96 0.315999 135.248 0.819998C136.554 1.324 137.684 2.03333 138.636 2.948C139.606 3.86267 140.362 4.936 140.904 6.168C141.445 7.38133 141.716 8.72533 141.716 10.2C141.716 11.656 141.445 13.0093 140.904 14.26C140.362 15.492 139.606 16.5653 138.636 17.48C137.684 18.376 136.554 19.076 135.248 19.58C133.96 20.084 132.55 20.336 131.02 20.336ZM130.992 16.472C131.869 16.472 132.672 16.3227 133.4 16.024C134.146 15.7253 134.8 15.296 135.36 14.736C135.92 14.176 136.349 13.5133 136.648 12.748C136.965 11.9827 137.124 11.1333 137.124 10.2C137.124 9.26667 136.965 8.41733 136.648 7.652C136.349 6.88667 135.92 6.224 135.36 5.664C134.818 5.104 134.174 4.67467 133.428 4.376C132.681 4.07733 131.869 3.928 130.992 3.928C130.114 3.928 129.302 4.07733 128.556 4.376C127.828 4.67467 127.184 5.104 126.624 5.664C126.064 6.224 125.625 6.88667 125.308 7.652C125.009 8.41733 124.86 9.26667 124.86 10.2C124.86 11.1147 125.009 11.964 125.308 12.748C125.625 13.5133 126.054 14.176 126.596 14.736C127.156 15.296 127.809 15.7253 128.556 16.024C129.302 16.3227 130.114 16.472 130.992 16.472ZM151.565 20.336C149.997 20.336 148.494 20.1307 147.057 19.72C145.619 19.2907 144.462 18.74 143.585 18.068L145.125 14.652C145.965 15.2493 146.954 15.744 148.093 16.136C149.25 16.5093 150.417 16.696 151.593 16.696C152.489 16.696 153.207 16.612 153.749 16.444C154.309 16.2573 154.719 16.0053 154.981 15.688C155.242 15.3707 155.373 15.0067 155.373 14.596C155.373 14.0733 155.167 13.6627 154.757 13.364C154.346 13.0467 153.805 12.7947 153.133 12.608C152.461 12.4027 151.714 12.216 150.893 12.048C150.09 11.8613 149.278 11.6373 148.457 11.376C147.654 11.1147 146.917 10.7787 146.245 10.368C145.573 9.95733 145.022 9.416 144.593 8.744C144.182 8.072 143.977 7.21333 143.977 6.168C143.977 5.048 144.275 4.03067 144.873 3.116C145.489 2.18267 146.403 1.44533 147.617 0.903999C148.849 0.343999 150.389 0.0639997 152.237 0.0639997C153.469 0.0639997 154.682 0.213333 155.877 0.511999C157.071 0.791999 158.126 1.22133 159.041 1.8L157.641 5.244C156.726 4.72133 155.811 4.33867 154.897 4.096C153.982 3.83467 153.086 3.704 152.209 3.704C151.331 3.704 150.613 3.80667 150.053 4.012C149.493 4.21733 149.091 4.488 148.849 4.824C148.606 5.14133 148.485 5.51467 148.485 5.944C148.485 6.448 148.69 6.85867 149.101 7.176C149.511 7.47467 150.053 7.71733 150.725 7.904C151.397 8.09067 152.134 8.27733 152.937 8.464C153.758 8.65067 154.57 8.86533 155.373 9.108C156.194 9.35067 156.941 9.67733 157.613 10.088C158.285 10.4987 158.826 11.04 159.237 11.712C159.666 12.384 159.881 13.2333 159.881 14.26C159.881 15.3613 159.573 16.3693 158.957 17.284C158.341 18.1987 157.417 18.936 156.185 19.496C154.971 20.056 153.431 20.336 151.565 20.336Z" fill="url(#paint0_linear_629_98)"/>
<defs>
<linearGradient id="paint0_linear_629_98" x1="-1" y1="9.99999" x2="161" y2="9.99999" gradientUnits="userSpaceOnUse">
<stop stop-color="#F68201"/>
<stop offset="1" stop-color="#FEBE01"/>
</linearGradient>
</defs>
</svg>
