<svg width="641" height="45" viewBox="0 0 641 45" fill="none" xmlns="http://www.w3.org/2000/svg">
<path d="M15.7484 36.7306C11.778 36.7306 8.6736 35.327 6.43525 32.5197C4.1969 29.7125 3.07773 25.7046 3.07773 20.4961V0.608792H9.55295V20.1917C9.55295 23.5738 10.0992 26.009 11.1917 27.4972C12.2843 28.9853 13.8165 29.7294 15.7883 29.7294C17.7602 29.7294 19.2924 28.9853 20.385 27.4972C21.4775 26.009 22.0237 23.5738 22.0237 20.1917V0.608792H28.419V20.4961C28.419 25.7046 27.2999 29.7125 25.0615 32.5197C22.8232 35.327 19.7188 36.7306 15.7484 36.7306Z" fill="url(#paint0_linear_598_219)"/>
<path d="M36.8163 36.1218V0.608792H42.1723L58.6801 26.1781H56.082V0.608792H62.4773V36.1218H57.1612L40.6135 10.5524H43.2115V36.1218H36.8163Z" fill="url(#paint1_linear_598_219)"/>
<path d="M71.0956 36.1218V0.608792H77.5709V36.1218H71.0956Z" fill="url(#paint2_linear_598_219)"/>
<path d="M92.2051 16.5896H105.635V23.1849H92.2051V16.5896ZM92.6847 36.1218H86.2095V0.608792H107.354V7.20406H92.6847V36.1218Z" fill="url(#paint3_linear_598_219)"/>
<path d="M127.053 36.7306C124.841 36.7306 122.789 36.274 120.897 35.3608C119.032 34.4476 117.407 33.1623 116.021 31.5051C114.662 29.8478 113.596 27.903 112.823 25.6708C112.077 23.4386 111.704 21.0034 111.704 18.3653C111.704 15.7272 112.077 13.292 112.823 11.0598C113.596 8.82751 114.675 6.88275 116.061 5.22548C117.447 3.56821 119.072 2.28297 120.937 1.36978C122.803 0.456594 124.828 0 127.013 0C129.225 0 131.25 0.456594 133.088 1.36978C134.954 2.28297 136.566 3.56821 137.925 5.22548C139.31 6.88275 140.39 8.82751 141.162 11.0598C141.935 13.2582 142.322 15.6933 142.322 18.3653C142.322 21.0034 141.935 23.4555 141.162 25.7215C140.39 27.9538 139.31 29.8985 137.925 31.5558C136.566 33.1793 134.954 34.4476 133.088 35.3608C131.25 36.274 129.238 36.7306 127.053 36.7306ZM127.013 29.7294C128.265 29.7294 129.411 29.4589 130.45 28.9177C131.516 28.3766 132.449 27.5986 133.248 26.584C134.048 25.5693 134.661 24.3687 135.087 22.982C135.54 21.5953 135.766 20.0564 135.766 18.3653C135.766 16.6742 135.54 15.1353 135.087 13.7486C134.661 12.3619 134.048 11.1612 133.248 10.1466C132.475 9.1319 131.556 8.354 130.49 7.81285C129.424 7.2717 128.265 7.00113 127.013 7.00113C125.76 7.00113 124.601 7.2717 123.535 7.81285C122.496 8.354 121.577 9.1319 120.777 10.1466C119.978 11.1612 119.352 12.3619 118.899 13.7486C118.472 15.1353 118.259 16.6742 118.259 18.3653C118.259 20.0225 118.472 21.5614 118.899 22.982C119.352 24.3687 119.965 25.5693 120.737 26.584C121.537 27.5986 122.47 28.3766 123.535 28.9177C124.601 29.4589 125.76 29.7294 127.013 29.7294Z" fill="url(#paint4_linear_598_219)"/>
<path d="M149.186 36.1218V0.608792H161.298C163.802 0.608792 165.961 1.13303 167.773 2.18151C169.585 3.19617 170.984 4.66742 171.97 6.59526C172.956 8.52311 173.449 10.823 173.449 13.4949C173.449 16.133 172.956 18.416 171.97 20.3439C170.984 22.2379 169.585 23.6922 167.773 24.7069C165.961 25.7215 163.802 26.2289 161.298 26.2289H152.784L155.662 22.6268V36.1218H149.186ZM166.973 36.1218L159.978 23.2356H166.893L173.968 36.1218H166.973ZM155.662 23.54L152.784 19.6843H160.938C162.936 19.6843 164.429 19.1432 165.414 18.0609C166.4 16.9448 166.893 15.4228 166.893 13.4949C166.893 11.5333 166.4 10.0113 165.414 8.92897C164.429 7.84667 162.936 7.30552 160.938 7.30552H152.784L155.662 3.3991V23.54Z" fill="url(#paint5_linear_598_219)"/>
<path d="M180.577 36.1218V0.608792H185.933L197.845 25.6708H195.007L206.718 0.608792H212.034L212.114 36.1218H206.039L205.999 12.4295H207.118L197.765 32.3675H194.847L185.294 12.4295H186.653V36.1218H180.577Z" fill="url(#paint6_linear_598_219)"/>
<path d="M226.706 14.9154H240.176V21.3078H226.706V14.9154ZM227.186 29.5265H242.415V36.1218H220.751V0.608792H241.895V7.20406H227.186V29.5265Z" fill="url(#paint7_linear_598_219)"/>
<path d="M258.759 36.7306C256.52 36.7306 254.375 36.3585 252.323 35.6144C250.272 34.8365 248.62 33.8388 247.367 32.6212L249.565 26.4318C250.765 27.5141 252.177 28.4104 253.802 29.1206C255.454 29.7971 257.12 30.1353 258.799 30.1353C260.078 30.1353 261.104 29.9831 261.876 29.6787C262.676 29.3405 263.262 28.8839 263.635 28.3089C264.008 27.7339 264.195 27.0744 264.195 26.3303C264.195 25.3833 263.902 24.6392 263.315 24.0981C262.729 23.5231 261.956 23.0665 260.997 22.7283C260.038 22.3563 258.972 22.018 257.799 21.7136C256.654 21.3754 255.494 20.9696 254.322 20.4961C253.176 20.0225 252.124 19.4138 251.164 18.6697C250.205 17.9256 249.419 16.9448 248.806 15.7272C248.22 14.5096 247.927 12.9538 247.927 11.0598C247.927 9.03044 248.353 7.18715 249.206 5.52987C250.085 3.83878 251.391 2.50282 253.123 1.52198C254.882 0.507328 257.08 0 259.718 0C261.477 0 263.209 0.270575 264.914 0.811724C266.62 1.31905 268.125 2.09695 269.431 3.14543L267.432 9.38557C266.127 8.43856 264.821 7.74521 263.515 7.30552C262.209 6.83202 260.93 6.59526 259.678 6.59526C258.426 6.59526 257.4 6.78128 256.6 7.15332C255.801 7.52537 255.228 8.01578 254.882 8.62458C254.535 9.19955 254.362 9.87599 254.362 10.6539C254.362 11.5671 254.655 12.3112 255.241 12.8861C255.828 13.4273 256.6 13.867 257.56 14.2052C258.519 14.5434 259.571 14.8816 260.717 15.2198C261.89 15.5581 263.049 15.947 264.195 16.3867C265.367 16.8264 266.433 17.4183 267.392 18.1623C268.352 18.9064 269.124 19.8873 269.711 21.1048C270.324 22.3224 270.63 23.8613 270.63 25.7215C270.63 27.717 270.19 29.5434 269.311 31.2007C268.432 32.8579 267.113 34.1939 265.354 35.2086C263.622 36.2232 261.423 36.7306 258.759 36.7306Z" fill="url(#paint8_linear_598_219)"/>
<path d="M290.371 36.1218V0.608792H302.482C304.987 0.608792 307.146 1.13303 308.958 2.18151C310.77 3.19617 312.169 4.66742 313.154 6.59526C314.14 8.52311 314.633 10.823 314.633 13.4949C314.633 16.133 314.14 18.416 313.154 20.3439C312.169 22.2717 310.77 23.7599 308.958 24.8083C307.146 25.823 304.987 26.3303 302.482 26.3303H293.969L296.846 22.6268V36.1218H290.371ZM296.846 23.54L293.969 19.6336H302.123C304.121 19.6336 305.613 19.0924 306.599 18.0101C307.585 16.9278 308.078 15.4228 308.078 13.4949C308.078 11.5333 307.585 10.0113 306.599 8.92897C305.613 7.84667 304.121 7.30552 302.123 7.30552H293.969L296.846 3.3991V23.54Z" fill="url(#paint9_linear_598_219)"/>
<path d="M321.255 36.1218V0.608792H333.366C335.871 0.608792 338.029 1.13303 339.841 2.18151C341.653 3.19617 343.052 4.66742 344.038 6.59526C345.024 8.52311 345.517 10.823 345.517 13.4949C345.517 16.133 345.024 18.416 344.038 20.3439C343.052 22.2379 341.653 23.6922 339.841 24.7069C338.029 25.7215 335.871 26.2289 333.366 26.2289H324.852L327.73 22.6268V36.1218H321.255ZM339.042 36.1218L332.047 23.2356H338.962L346.036 36.1218H339.042ZM327.73 23.54L324.852 19.6843H333.006C335.005 19.6843 336.497 19.1432 337.483 18.0609C338.469 16.9448 338.962 15.4228 338.962 13.4949C338.962 11.5333 338.469 10.0113 337.483 8.92897C336.497 7.84667 335.005 7.30552 333.006 7.30552H324.852L327.73 3.3991V23.54Z" fill="url(#paint10_linear_598_219)"/>
<path d="M366.236 36.7306C364.024 36.7306 361.972 36.274 360.08 35.3608C358.215 34.4476 356.589 33.1623 355.204 31.5051C353.845 29.8478 352.779 27.903 352.006 25.6708C351.26 23.4386 350.887 21.0034 350.887 18.3653C350.887 15.7272 351.26 13.292 352.006 11.0598C352.779 8.82751 353.858 6.88275 355.244 5.22548C356.629 3.56821 358.255 2.28297 360.12 1.36978C361.985 0.456594 364.011 0 366.196 0C368.407 0 370.433 0.456594 372.271 1.36978C374.136 2.28297 375.749 3.56821 377.108 5.22548C378.493 6.88275 379.572 8.82751 380.345 11.0598C381.118 13.2582 381.504 15.6933 381.504 18.3653C381.504 21.0034 381.118 23.4555 380.345 25.7215C379.572 27.9538 378.493 29.8985 377.108 31.5558C375.749 33.1793 374.136 34.4476 372.271 35.3608C370.433 36.274 368.421 36.7306 366.236 36.7306ZM366.196 29.7294C367.448 29.7294 368.594 29.4589 369.633 28.9177C370.699 28.3766 371.632 27.5986 372.431 26.584C373.23 25.5693 373.843 24.3687 374.27 22.982C374.723 21.5953 374.949 20.0564 374.949 18.3653C374.949 16.6742 374.723 15.1353 374.27 13.7486C373.843 12.3619 373.23 11.1612 372.431 10.1466C371.658 9.1319 370.739 8.354 369.673 7.81285C368.607 7.2717 367.448 7.00113 366.196 7.00113C364.943 7.00113 363.784 7.2717 362.718 7.81285C361.679 8.354 360.76 9.1319 359.96 10.1466C359.161 11.1612 358.535 12.3619 358.082 13.7486C357.655 15.1353 357.442 16.6742 357.442 18.3653C357.442 20.0225 357.655 21.5614 358.082 22.982C358.535 24.3687 359.148 25.5693 359.92 26.584C360.72 27.5986 361.652 28.3766 362.718 28.9177C363.784 29.4589 364.943 29.7294 366.196 29.7294Z" fill="url(#paint11_linear_598_219)"/>
<path d="M394.365 16.5896H407.795V23.1849H394.365V16.5896ZM394.845 36.1218H388.369V0.608792H409.514V7.20406H394.845V36.1218Z" fill="url(#paint12_linear_598_219)"/>
<path d="M415.896 36.1218V0.608792H422.371V36.1218H415.896Z" fill="url(#paint13_linear_598_219)"/>
<path d="M440.203 36.7306C437.965 36.7306 435.819 36.3585 433.768 35.6144C431.716 34.8365 430.064 33.8388 428.811 32.6212L431.01 26.4318C432.209 27.5141 433.621 28.4104 435.247 29.1206C436.899 29.7971 438.564 30.1353 440.243 30.1353C441.522 30.1353 442.548 29.9831 443.321 29.6787C444.12 29.3405 444.706 28.8839 445.079 28.3089C445.452 27.7339 445.639 27.0744 445.639 26.3303C445.639 25.3833 445.346 24.6392 444.76 24.0981C444.173 23.5231 443.401 23.0665 442.441 22.7283C441.482 22.3563 440.416 22.018 439.244 21.7136C438.098 21.3754 436.939 20.9696 435.766 20.4961C434.62 20.0225 433.568 19.4138 432.609 18.6697C431.649 17.9256 430.863 16.9448 430.25 15.7272C429.664 14.5096 429.371 12.9538 429.371 11.0598C429.371 9.03044 429.797 7.18715 430.65 5.52987C431.529 3.83878 432.835 2.50282 434.567 1.52198C436.326 0.507328 438.524 0 441.162 0C442.921 0 444.653 0.270575 446.358 0.811724C448.064 1.31905 449.569 2.09695 450.875 3.14543L448.877 9.38557C447.571 8.43856 446.265 7.74521 444.959 7.30552C443.654 6.83202 442.375 6.59526 441.122 6.59526C439.87 6.59526 438.844 6.78128 438.044 7.15332C437.245 7.52537 436.672 8.01578 436.326 8.62458C435.979 9.19955 435.806 9.87599 435.806 10.6539C435.806 11.5671 436.099 12.3112 436.686 12.8861C437.272 13.4273 438.045 13.867 439.004 14.2052C439.963 14.5434 441.016 14.8816 442.161 15.2198C443.334 15.5581 444.493 15.947 445.639 16.3867C446.811 16.8264 447.877 17.4183 448.837 18.1623C449.796 18.9064 450.569 19.8873 451.155 21.1048C451.768 22.3224 452.074 23.8613 452.074 25.7215C452.074 27.717 451.634 29.5434 450.755 31.2007C449.876 32.8579 448.557 34.1939 446.798 35.2086C445.066 36.2232 442.868 36.7306 440.203 36.7306Z" fill="url(#paint14_linear_598_219)"/>
<path d="M467.69 36.7306C465.452 36.7306 463.307 36.3585 461.255 35.6144C459.203 34.8365 457.551 33.8388 456.299 32.6212L458.497 26.4318C459.696 27.5141 461.109 28.4104 462.734 29.1206C464.386 29.7971 466.052 30.1353 467.73 30.1353C469.009 30.1353 470.035 29.9831 470.808 29.6787C471.608 29.3405 472.194 28.8839 472.567 28.3089C472.94 27.7339 473.126 27.0744 473.126 26.3303C473.126 25.3833 472.833 24.6392 472.247 24.0981C471.661 23.5231 470.888 23.0665 469.929 22.7283C468.969 22.3563 467.904 22.018 466.731 21.7136C465.585 21.3754 464.426 20.9696 463.254 20.4961C462.108 20.0225 461.055 19.4138 460.096 18.6697C459.137 17.9256 458.351 16.9448 457.738 15.7272C457.152 14.5096 456.858 12.9538 456.858 11.0598C456.858 9.03044 457.285 7.18715 458.137 5.52987C459.017 3.83878 460.323 2.50282 462.055 1.52198C463.813 0.507328 466.012 0 468.65 0C470.408 0 472.14 0.270575 473.846 0.811724C475.551 1.31905 477.057 2.09695 478.363 3.14543L476.364 9.38557C475.058 8.43856 473.753 7.74521 472.447 7.30552C471.141 6.83202 469.862 6.59526 468.61 6.59526C467.357 6.59526 466.331 6.78128 465.532 7.15332C464.733 7.52537 464.16 8.01578 463.813 8.62458C463.467 9.19955 463.294 9.87599 463.294 10.6539C463.294 11.5671 463.587 12.3112 464.173 12.8861C464.759 13.4273 465.532 13.867 466.491 14.2052C467.451 14.5434 468.503 14.8816 469.649 15.2198C470.821 15.5581 471.981 15.947 473.126 16.3867C474.299 16.8264 475.365 17.4183 476.324 18.1623C477.283 18.9064 478.056 19.8873 478.642 21.1048C479.255 22.3224 479.562 23.8613 479.562 25.7215C479.562 27.717 479.122 29.5434 478.243 31.2007C477.363 32.8579 476.044 34.1939 474.286 35.2086C472.554 36.2232 470.355 36.7306 467.69 36.7306Z" fill="url(#paint15_linear_598_219)"/>
<path d="M485.985 36.1218V0.608792H492.46V36.1218H485.985Z" fill="url(#paint16_linear_598_219)"/>
<path d="M514.689 36.7306C512.477 36.7306 510.425 36.274 508.533 35.3608C506.668 34.4476 505.042 33.1623 503.657 31.5051C502.298 29.8478 501.232 27.903 500.459 25.6708C499.713 23.4386 499.34 21.0034 499.34 18.3653C499.34 15.7272 499.713 13.292 500.459 11.0598C501.232 8.82751 502.311 6.88275 503.697 5.22548C505.082 3.56821 506.708 2.28297 508.573 1.36978C510.438 0.456594 512.464 0 514.649 0C516.86 0 518.885 0.456594 520.724 1.36978C522.589 2.28297 524.202 3.56821 525.561 5.22548C526.946 6.88275 528.025 8.82751 528.798 11.0598C529.571 13.2582 529.957 15.6933 529.957 18.3653C529.957 21.0034 529.571 23.4555 528.798 25.7215C528.025 27.9538 526.946 29.8985 525.561 31.5558C524.202 33.1793 522.589 34.4476 520.724 35.3608C518.885 36.274 516.874 36.7306 514.689 36.7306ZM514.649 29.7294C515.901 29.7294 517.047 29.4589 518.086 28.9177C519.152 28.3766 520.085 27.5986 520.884 26.584C521.683 25.5693 522.296 24.3687 522.723 22.982C523.176 21.5953 523.402 20.0564 523.402 18.3653C523.402 16.6742 523.176 15.1353 522.723 13.7486C522.296 12.3619 521.683 11.1612 520.884 10.1466C520.111 9.1319 519.192 8.354 518.126 7.81285C517.06 7.2717 515.901 7.00113 514.649 7.00113C513.396 7.00113 512.237 7.2717 511.171 7.81285C510.132 8.354 509.213 9.1319 508.413 10.1466C507.614 11.1612 506.988 12.3619 506.535 13.7486C506.108 15.1353 505.895 16.6742 505.895 18.3653C505.895 20.0225 506.108 21.5614 506.535 22.982C506.988 24.3687 507.6 25.5693 508.373 26.584C509.173 27.5986 510.105 28.3766 511.171 28.9177C512.237 29.4589 513.396 29.7294 514.649 29.7294Z" fill="url(#paint17_linear_598_219)"/>
<path d="M536.822 36.1218V0.608792H542.178L558.686 26.1781H556.088V0.608792H562.483V36.1218H557.167L540.619 10.5524H543.217V36.1218H536.822Z" fill="url(#paint18_linear_598_219)"/>
<path d="M567.424 36.1218L579.895 0.608792H586.29L598.801 36.1218H592.006L581.774 4.76888H584.332L574.059 36.1218H567.424ZM573.66 28.5118L575.378 22.2717H589.768L591.527 28.5118H573.66Z" fill="url(#paint19_linear_598_219)"/>
<path d="M603.703 36.1218V0.608792H610.178V36.1218H603.703Z" fill="url(#paint20_linear_598_219)"/>
<path d="M628.01 36.7306C625.771 36.7306 623.626 36.3585 621.574 35.6144C619.523 34.8365 617.87 33.8388 616.618 32.6212L618.816 26.4318C620.016 27.5141 621.428 28.4104 623.053 29.1206C624.705 29.7971 626.371 30.1353 628.05 30.1353C629.329 30.1353 630.355 29.9831 631.127 29.6787C631.927 29.3405 632.513 28.8839 632.886 28.3089C633.259 27.7339 633.446 27.0744 633.446 26.3303C633.446 25.3833 633.153 24.6392 632.566 24.0981C631.98 23.5231 631.207 23.0665 630.248 22.7283C629.289 22.3563 628.223 22.018 627.05 21.7136C625.904 21.3754 624.745 20.9696 623.573 20.4961C622.427 20.0225 621.375 19.4138 620.415 18.6697C619.456 17.9256 618.67 16.9448 618.057 15.7272C617.471 14.5096 617.178 12.9538 617.178 11.0598C617.178 9.03044 617.604 7.18715 618.457 5.52987C619.336 3.83878 620.642 2.50282 622.374 1.52198C624.133 0.507328 626.331 0 628.969 0C630.728 0 632.46 0.270575 634.165 0.811724C635.87 1.31905 637.376 2.09695 638.682 3.14543L636.683 9.38557C635.378 8.43856 634.072 7.74521 632.766 7.30552C631.46 6.83202 630.181 6.59526 628.929 6.59526C627.677 6.59526 626.651 6.78128 625.851 7.15332C625.052 7.52537 624.479 8.01578 624.133 8.62458C623.786 9.19955 623.613 9.87599 623.613 10.6539C623.613 11.5671 623.906 12.3112 624.492 12.8861C625.078 13.4273 625.851 13.867 626.811 14.2052C627.77 14.5434 628.822 14.8816 629.968 15.2198C631.141 15.5581 632.3 15.947 633.446 16.3867C634.618 16.8264 635.684 17.4183 636.643 18.1623C637.603 18.9064 638.375 19.8873 638.961 21.1048C639.574 22.3224 639.881 23.8613 639.881 25.7215C639.881 27.717 639.441 29.5434 638.562 31.2007C637.682 32.8579 636.363 34.1939 634.605 35.2086C632.873 36.2232 630.674 36.7306 628.01 36.7306Z" fill="url(#paint21_linear_598_219)"/>
<path d="M0 42.4634H641V45H0V42.4634Z" fill="url(#paint22_linear_598_219)"/>
<defs>
<linearGradient id="paint0_linear_598_219" x1="-4.77975e-06" y1="17.7311" x2="641.526" y2="17.731" gradientUnits="userSpaceOnUse">
<stop stop-color="#F57D01"/>
<stop offset="1" stop-color="#FFBE17"/>
</linearGradient>
<linearGradient id="paint1_linear_598_219" x1="-4.77975e-06" y1="17.7311" x2="641.526" y2="17.731" gradientUnits="userSpaceOnUse">
<stop stop-color="#F57D01"/>
<stop offset="1" stop-color="#FFBE17"/>
</linearGradient>
<linearGradient id="paint2_linear_598_219" x1="-4.77975e-06" y1="17.7311" x2="641.526" y2="17.731" gradientUnits="userSpaceOnUse">
<stop stop-color="#F57D01"/>
<stop offset="1" stop-color="#FFBE17"/>
</linearGradient>
<linearGradient id="paint3_linear_598_219" x1="-4.77975e-06" y1="17.7311" x2="641.526" y2="17.731" gradientUnits="userSpaceOnUse">
<stop stop-color="#F57D01"/>
<stop offset="1" stop-color="#FFBE17"/>
</linearGradient>
<linearGradient id="paint4_linear_598_219" x1="-4.77975e-06" y1="17.7311" x2="641.526" y2="17.731" gradientUnits="userSpaceOnUse">
<stop stop-color="#F57D01"/>
<stop offset="1" stop-color="#FFBE17"/>
</linearGradient>
<linearGradient id="paint5_linear_598_219" x1="-4.77975e-06" y1="17.7311" x2="641.526" y2="17.731" gradientUnits="userSpaceOnUse">
<stop stop-color="#F57D01"/>
<stop offset="1" stop-color="#FFBE17"/>
</linearGradient>
<linearGradient id="paint6_linear_598_219" x1="-4.77975e-06" y1="17.7311" x2="641.526" y2="17.731" gradientUnits="userSpaceOnUse">
<stop stop-color="#F57D01"/>
<stop offset="1" stop-color="#FFBE17"/>
</linearGradient>
<linearGradient id="paint7_linear_598_219" x1="-4.77975e-06" y1="17.7311" x2="641.526" y2="17.731" gradientUnits="userSpaceOnUse">
<stop stop-color="#F57D01"/>
<stop offset="1" stop-color="#FFBE17"/>
</linearGradient>
<linearGradient id="paint8_linear_598_219" x1="-4.77975e-06" y1="17.7311" x2="641.526" y2="17.731" gradientUnits="userSpaceOnUse">
<stop stop-color="#F57D01"/>
<stop offset="1" stop-color="#FFBE17"/>
</linearGradient>
<linearGradient id="paint9_linear_598_219" x1="-4.77975e-06" y1="17.7311" x2="641.526" y2="17.731" gradientUnits="userSpaceOnUse">
<stop stop-color="#F57D01"/>
<stop offset="1" stop-color="#FFBE17"/>
</linearGradient>
<linearGradient id="paint10_linear_598_219" x1="-4.77975e-06" y1="17.7311" x2="641.526" y2="17.731" gradientUnits="userSpaceOnUse">
<stop stop-color="#F57D01"/>
<stop offset="1" stop-color="#FFBE17"/>
</linearGradient>
<linearGradient id="paint11_linear_598_219" x1="-4.77975e-06" y1="17.7311" x2="641.526" y2="17.731" gradientUnits="userSpaceOnUse">
<stop stop-color="#F57D01"/>
<stop offset="1" stop-color="#FFBE17"/>
</linearGradient>
<linearGradient id="paint12_linear_598_219" x1="-4.77975e-06" y1="17.7311" x2="641.526" y2="17.731" gradientUnits="userSpaceOnUse">
<stop stop-color="#F57D01"/>
<stop offset="1" stop-color="#FFBE17"/>
</linearGradient>
<linearGradient id="paint13_linear_598_219" x1="-4.77975e-06" y1="17.7311" x2="641.526" y2="17.731" gradientUnits="userSpaceOnUse">
<stop stop-color="#F57D01"/>
<stop offset="1" stop-color="#FFBE17"/>
</linearGradient>
<linearGradient id="paint14_linear_598_219" x1="-4.77975e-06" y1="17.7311" x2="641.526" y2="17.731" gradientUnits="userSpaceOnUse">
<stop stop-color="#F57D01"/>
<stop offset="1" stop-color="#FFBE17"/>
</linearGradient>
<linearGradient id="paint15_linear_598_219" x1="-4.77975e-06" y1="17.7311" x2="641.526" y2="17.731" gradientUnits="userSpaceOnUse">
<stop stop-color="#F57D01"/>
<stop offset="1" stop-color="#FFBE17"/>
</linearGradient>
<linearGradient id="paint16_linear_598_219" x1="-4.77975e-06" y1="17.7311" x2="641.526" y2="17.731" gradientUnits="userSpaceOnUse">
<stop stop-color="#F57D01"/>
<stop offset="1" stop-color="#FFBE17"/>
</linearGradient>
<linearGradient id="paint17_linear_598_219" x1="-4.77975e-06" y1="17.7311" x2="641.526" y2="17.731" gradientUnits="userSpaceOnUse">
<stop stop-color="#F57D01"/>
<stop offset="1" stop-color="#FFBE17"/>
</linearGradient>
<linearGradient id="paint18_linear_598_219" x1="-4.77975e-06" y1="17.7311" x2="641.526" y2="17.731" gradientUnits="userSpaceOnUse">
<stop stop-color="#F57D01"/>
<stop offset="1" stop-color="#FFBE17"/>
</linearGradient>
<linearGradient id="paint19_linear_598_219" x1="-4.77975e-06" y1="17.7311" x2="641.526" y2="17.731" gradientUnits="userSpaceOnUse">
<stop stop-color="#F57D01"/>
<stop offset="1" stop-color="#FFBE17"/>
</linearGradient>
<linearGradient id="paint20_linear_598_219" x1="-4.77975e-06" y1="17.7311" x2="641.526" y2="17.731" gradientUnits="userSpaceOnUse">
<stop stop-color="#F57D01"/>
<stop offset="1" stop-color="#FFBE17"/>
</linearGradient>
<linearGradient id="paint21_linear_598_219" x1="-4.77975e-06" y1="17.7311" x2="641.526" y2="17.731" gradientUnits="userSpaceOnUse">
<stop stop-color="#F57D01"/>
<stop offset="1" stop-color="#FFBE17"/>
</linearGradient>
<linearGradient id="paint22_linear_598_219" x1="-4.77975e-06" y1="17.7311" x2="641.526" y2="17.731" gradientUnits="userSpaceOnUse">
<stop stop-color="#F57D01"/>
<stop offset="1" stop-color="#FFBE17"/>
</linearGradient>
</defs>
</svg>
