<svg width="99" height="97" viewBox="0 0 99 97" fill="none" xmlns="http://www.w3.org/2000/svg">
<rect width="95" height="94" rx="20" fill="#FF9525" fill-opacity="0.6"/>
<rect x="3" y="3" width="95" height="94" rx="20" fill="url(#paint0_linear_970_46)"/>
<path fill-rule="evenodd" clip-rule="evenodd" d="M54.3941 30.5191C57.1081 27.8041 60.8581 26.125 65 26.125C73.2847 26.125 80 32.8403 80 41.125C80 44.2544 79.04 47.1588 77.4003 49.5625C77.4003 49.5625 76.7113 50.6537 75.8984 51.4666L52.6512 74.7137C51.9191 75.4459 50.9591 75.8125 50 75.8125C49.0409 75.8125 48.0809 75.4459 47.3488 74.7137C47.3488 74.7137 24.9153 52.2794 24.1016 51.4666C23.2878 50.6537 22.5997 49.5625 22.5997 49.5625C20.96 47.1588 20 44.2544 20 41.125C20 32.8403 26.7153 26.125 35 26.125C39.1419 26.125 42.8919 27.8041 45.6078 30.5191C45.6153 30.5106 49.3381 34.2325 49.3381 34.2325C49.7047 34.5991 50.2972 34.5991 50.6637 34.2325L54.3941 30.5191ZM73.3353 51.3794C74.4706 50.2441 75.0444 49.5409 75.0444 49.5409C76.9578 47.2609 78.125 44.335 78.125 41.125C78.125 33.8763 72.2487 28 65 28C61.3756 28 58.0944 29.4681 55.7197 31.8447L55.7113 31.8362L51.3256 36.2209C50.5934 36.9531 49.4066 36.9531 48.6744 36.2209L44.2888 31.8362L44.2803 31.8447C41.9056 29.4681 38.6244 28 35 28C27.7513 28 21.875 33.8763 21.875 41.125C21.875 44.335 23.0422 47.2609 24.9556 49.54C24.9556 49.54 25.5294 50.2431 26.6647 51.3784L48.6744 73.3881C49.0409 73.7547 49.52 73.9375 50 73.9375C50.48 73.9375 50.9591 73.7547 51.3256 73.3881L73.3353 51.3794ZM64.0625 32.6875C64.0625 32.1691 64.4816 31.75 65 31.75C70.1769 31.75 74.375 35.9481 74.375 41.125C74.375 41.6434 73.9559 42.0625 73.4375 42.0625C72.9191 42.0625 72.5 41.6434 72.5 41.125C72.5 36.9831 69.1419 33.625 65 33.625C64.4816 33.625 64.0625 33.2059 64.0625 32.6875Z" fill="url(#paint1_linear_970_46)"/>
<defs>
<linearGradient id="paint0_linear_970_46" x1="3" y1="3" x2="64.06" y2="97.5914" gradientUnits="userSpaceOnUse">
<stop stop-color="#454545"/>
<stop offset="1" stop-color="#333333"/>
</linearGradient>
<linearGradient id="paint1_linear_970_46" x1="20" y1="26.5" x2="64.5" y2="75.5" gradientUnits="userSpaceOnUse">
<stop stop-color="#F57F00"/>
<stop offset="1" stop-color="#FBA901"/>
</linearGradient>
</defs>
</svg>
