<svg width="99" height="98" viewBox="0 0 99 98" fill="none" xmlns="http://www.w3.org/2000/svg">
<rect x="0.5" y="0.5" width="95" height="94" rx="20" fill="#FF9525" fill-opacity="0.6"/>
<rect x="3.5" y="3.5" width="95" height="94" rx="20" fill="url(#paint0_linear_970_16)"/>
<path fill-rule="evenodd" clip-rule="evenodd" d="M69.8125 25.0625C69.8125 24.6581 69.5689 24.2934 69.1952 24.1386C68.8215 23.9839 68.3914 24.0694 68.1054 24.3554L63.3237 29.1371C59.7342 26.9874 55.5198 25.8438 51 25.8438C37.6227 25.8438 26.8438 36.6227 26.8438 50C26.8438 63.3773 37.6227 74.1563 51 74.1563C64.3773 74.1563 75.1562 63.3773 75.1562 50C75.1562 45.4803 74.0127 41.2658 71.8629 37.6764L76.6446 32.8946C76.9306 32.6086 77.0162 32.1785 76.8614 31.8048C76.7066 31.4312 76.342 31.1875 75.9375 31.1875H69.8125V25.0625ZM69.9002 36.8107C69.8905 36.82 69.881 36.8295 69.8717 36.8391L68.3983 38.3125H62.6875V32.6017L64.1609 31.1284C64.1706 31.1191 64.1801 31.1096 64.1894 31.0998L67.8125 27.4767V32.1875C67.8125 32.7398 68.2602 33.1875 68.8125 33.1875H73.5233L69.9002 36.8107ZM61.8611 30.5998L60.9804 31.4804C60.7929 31.668 60.6875 31.9223 60.6875 32.1875V38.8983L58.5271 41.0587C56.4936 39.3451 53.8674 38.3125 51 38.3125C44.5452 38.3125 39.3125 43.5452 39.3125 50C39.3125 56.4549 44.5452 61.6875 51 61.6875C57.4548 61.6875 62.6875 56.4549 62.6875 50C62.6875 47.1326 61.6549 44.5064 59.9413 42.4729L62.1017 40.3125H68.8125C69.0777 40.3125 69.3321 40.2072 69.5196 40.0196L70.4003 39.139C72.1917 42.3067 73.1562 46.0058 73.1562 50C73.1562 62.2727 63.2727 72.1563 51 72.1563C38.7273 72.1563 28.8438 62.2727 28.8438 50C28.8438 37.7273 38.7273 27.8438 51 27.8438C54.9942 27.8438 58.6933 28.8083 61.8611 30.5998ZM51 40.3125C53.3149 40.3125 55.4402 41.1245 57.1066 42.4792L50.2929 49.2929C49.9024 49.6834 49.9024 50.3166 50.2929 50.7071C50.6834 51.0977 51.3166 51.0977 51.7071 50.7071L58.5208 43.8934C59.8755 45.5598 60.6875 47.6851 60.6875 50C60.6875 55.3503 56.3503 59.6875 51 59.6875C45.6497 59.6875 41.3125 55.3503 41.3125 50C41.3125 44.6498 45.6497 40.3125 51 40.3125Z" fill="url(#paint1_linear_970_16)"/>
<defs>
<linearGradient id="paint0_linear_970_16" x1="3.5" y1="3.5" x2="64.56" y2="98.0914" gradientUnits="userSpaceOnUse">
<stop stop-color="#454545"/>
<stop offset="1" stop-color="#333333"/>
</linearGradient>
<linearGradient id="paint1_linear_970_16" x1="26.5" y1="24.5" x2="76.5" y2="74.5" gradientUnits="userSpaceOnUse">
<stop stop-color="#F68B00"/>
<stop offset="1" stop-color="#FDBA01"/>
</linearGradient>
</defs>
</svg>
