<svg width="96" height="95" viewBox="0 0 96 95" fill="none" xmlns="http://www.w3.org/2000/svg">
<rect x="0.5" y="0.5" width="92" height="91" rx="20" fill="#FF9525" fill-opacity="0.6"/>
<rect x="3.5" y="2.5" width="92" height="92" rx="20" fill="url(#paint0_linear_970_31)"/>
<g clip-path="url(#clip0_970_31)">
<path fill-rule="evenodd" clip-rule="evenodd" d="M79.4351 48.1603L79.4379 48.1671C79.5204 48.3837 79.5204 48.6237 79.4369 48.8412L79.4343 48.8476L79.4343 48.8477C79.4046 48.9215 79.1772 49.4875 78.7394 50.3946C76.3 55.4365 67.3216 71.0037 49.4997 71.0037C28.3422 71.0037 19.6479 49.0624 19.5616 48.8412C19.4782 48.6237 19.4782 48.3837 19.5616 48.1671C19.6479 47.9449 28.3422 26.0037 49.4997 26.0037C67.331 26.0037 76.3094 41.5877 78.7441 46.6221C79.1795 47.5234 79.4051 48.0855 79.4351 48.1603ZM21.4525 48.5027C22.615 51.2008 31.0441 69.1287 49.4997 69.1287C67.9797 69.1287 76.3863 51.2065 77.5469 48.5046C76.3844 45.8065 67.9554 27.8787 49.4997 27.8787C31.0197 27.8787 22.6132 45.8008 21.4525 48.5027ZM34.4995 48.5073C34.4995 40.2226 41.2148 33.5073 49.4995 33.5073C57.7842 33.5073 64.4995 40.2226 64.4995 48.5073C64.4995 56.792 57.7842 63.5073 49.4995 63.5073C41.2148 63.5073 34.4995 56.792 34.4995 48.5073ZM36.3745 48.5073C36.3745 55.7561 42.2508 61.6323 49.4995 61.6323C56.7483 61.6323 62.6245 55.7561 62.6245 48.5073C62.6245 41.2586 56.7483 35.3823 49.4995 35.3823C42.2508 35.3823 36.3745 41.2586 36.3745 48.5073ZM49.4995 41.0073C45.3576 41.0073 41.9995 44.3654 41.9995 48.5073C41.9995 52.6492 45.3576 56.0073 49.4995 56.0073C53.6414 56.0073 56.9995 52.6492 56.9995 48.5073C56.9995 44.3654 53.6414 41.0073 49.4995 41.0073ZM49.4995 54.1323C46.3936 54.1323 43.8745 51.6133 43.8745 48.5073C43.8745 45.4014 46.3936 42.8823 49.4995 42.8823C52.6054 42.8823 55.1245 45.4014 55.1245 48.5073C55.1245 51.6133 52.6054 54.1323 49.4995 54.1323ZM48.562 45.6912C48.562 45.1727 48.9811 44.7537 49.4995 44.7537C51.5704 44.7537 53.2495 46.4327 53.2495 48.5037C53.2495 49.0221 52.8304 49.4412 52.312 49.4412C51.7936 49.4412 51.3745 49.0221 51.3745 48.5037C51.3745 47.4687 50.5345 46.6287 49.4995 46.6287C48.9811 46.6287 48.562 46.2096 48.562 45.6912Z" fill="url(#paint1_linear_970_31)"/>
</g>
<defs>
<linearGradient id="paint0_linear_970_31" x1="3.5" y1="2.5" x2="63.5191" y2="94.5" gradientUnits="userSpaceOnUse">
<stop stop-color="#454545"/>
<stop offset="1" stop-color="#333333"/>
</linearGradient>
<linearGradient id="paint1_linear_970_31" x1="22.4995" y1="26.5" x2="79.4995" y2="71.5" gradientUnits="userSpaceOnUse">
<stop stop-color="#F57F00"/>
<stop offset="1" stop-color="#FDB801"/>
</linearGradient>
<clipPath id="clip0_970_31">
<rect width="60" height="60" fill="white" transform="translate(19.5 18.5)"/>
</clipPath>
</defs>
</svg>
