<svg width="270" height="43" viewBox="0 0 270 43" fill="none" xmlns="http://www.w3.org/2000/svg">
<path d="M11.5722 43C9.28016 43 7.0859 42.6353 4.98948 41.906C2.89306 41.1449 1.2299 40.1777 0 39.0044L1.88678 34.2002C3.06077 35.2467 4.51429 36.1187 6.24733 36.8164C7.98038 37.514 9.75535 37.8628 11.5722 37.8628C13.1096 37.8628 14.3535 37.6726 15.3039 37.292C16.2542 36.9115 16.9531 36.4041 17.4003 35.7699C17.8475 35.104 18.0711 34.3588 18.0711 33.5343C18.0711 32.5195 17.7497 31.7109 17.1068 31.1084C16.4639 30.4742 15.6253 29.9827 14.5911 29.6339C13.5848 29.2533 12.4527 28.9045 11.1949 28.5874C9.96499 28.2703 8.72111 27.9056 7.46326 27.4934C6.23336 27.0494 5.10129 26.4945 4.06706 25.8285C3.06077 25.1309 2.23618 24.2113 1.59328 23.0697C0.950378 21.9281 0.628926 20.4694 0.628926 18.6936C0.628926 16.8861 1.04821 15.2371 1.88678 13.7467C2.7533 12.2246 4.05308 11.0195 5.78612 10.1316C7.54712 9.21202 9.76932 8.75221 12.4527 8.75221C14.2137 8.75221 15.9608 9.0059 17.6938 9.51328C19.4268 10.0206 20.9363 10.75 22.2221 11.7013L20.503 16.5055C19.1892 15.6176 17.8336 14.9676 16.4359 14.5553C15.0383 14.1114 13.6966 13.8894 12.4108 13.8894C10.9014 13.8894 9.67149 14.0955 8.72111 14.5077C7.79869 14.92 7.11386 15.4591 6.66662 16.125C6.24733 16.7909 6.03769 17.552 6.03769 18.4082C6.03769 19.4229 6.34517 20.2474 6.96012 20.8816C7.60302 21.4841 8.42761 21.9598 9.4339 22.3086C10.4681 22.6574 11.6142 23.0063 12.872 23.3551C14.1299 23.6722 15.3738 24.0369 16.6037 24.4491C17.8615 24.8614 18.9936 25.4004 19.9999 26.0664C21.0341 26.7323 21.8587 27.6361 22.4736 28.7777C23.1165 29.9192 23.438 31.3621 23.438 33.1062C23.438 34.882 23.0047 36.531 22.1382 38.0531C21.2996 39.5435 19.9999 40.7485 18.2389 41.6681C16.4779 42.556 14.2557 43 11.5722 43Z" fill="url(#paint0_linear_971_87)"/>
<path d="M44.2725 43C41.9804 43 39.87 42.5719 37.9413 41.7157C36.0126 40.8595 34.3354 39.6704 32.9099 38.1482C31.4843 36.5944 30.3802 34.7869 29.5975 32.7257C28.8149 30.6327 28.4235 28.3496 28.4235 25.8761C28.4235 23.4027 28.8149 21.1353 29.5975 19.0741C30.3802 16.9812 31.4843 15.1737 32.9099 13.6515C34.3354 12.0977 36.0126 10.8927 37.9413 10.0365C39.87 9.18031 41.9664 8.75221 44.2305 8.75221C46.5226 8.75221 48.6191 9.18031 50.5198 10.0365C52.4485 10.8927 54.1257 12.0977 55.5512 13.6515C56.9768 15.1737 58.0809 16.9812 58.8636 19.0741C59.6462 21.1353 60.0376 23.4027 60.0376 25.8761C60.0376 28.3496 59.6462 30.6327 58.8636 32.7257C58.0809 34.8186 56.9768 36.6261 55.5512 38.1482C54.1257 39.6704 52.4485 40.8595 50.5198 41.7157C48.6191 42.5719 46.5366 43 44.2725 43ZM44.2305 37.5774C45.712 37.5774 47.0817 37.292 48.3395 36.7212C49.5974 36.1504 50.6875 35.3418 51.61 34.2954C52.5324 33.2172 53.2452 31.9805 53.7483 30.5852C54.2794 29.1582 54.5449 27.5885 54.5449 25.8761C54.5449 24.1637 54.2794 22.6099 53.7483 21.2146C53.2452 19.7876 52.5324 18.5509 51.61 17.5044C50.6875 16.4263 49.5974 15.6018 48.3395 15.031C47.0817 14.4602 45.712 14.1748 44.2305 14.1748C42.7491 14.1748 41.3794 14.4602 40.1216 15.031C38.8917 15.6018 37.8015 16.4263 36.8511 17.5044C35.9287 18.5509 35.202 19.7876 34.6709 21.2146C34.1677 22.6099 33.9162 24.1637 33.9162 25.8761C33.9162 27.5568 34.1677 29.1106 34.6709 30.5376C35.202 31.9646 35.9287 33.2172 36.8511 34.2954C37.7736 35.3418 38.8637 36.1504 40.1216 36.7212C41.3794 37.292 42.7491 37.5774 44.2305 37.5774Z" fill="url(#paint1_linear_971_87)"/>
<path d="M67.4923 42.5243V9.22788H81.2448C84.7668 9.22788 87.4502 10.0206 89.2951 11.6062C91.1399 13.16 92.0624 15.253 92.0624 17.885C92.0624 19.6608 91.699 21.1829 90.9722 22.4513C90.2455 23.6881 89.2671 24.6552 88.0372 25.3529C86.8353 26.0188 85.5215 26.3518 84.096 26.3518L84.8507 24.6394C86.4999 24.6394 87.9813 24.9882 89.2951 25.6858C90.6088 26.3518 91.6431 27.3348 92.3978 28.635C93.1804 29.9351 93.5718 31.5524 93.5718 33.4867C93.5718 36.3407 92.6074 38.5605 90.6787 40.146C88.75 41.7316 85.8849 42.5243 82.0834 42.5243H67.4923ZM72.943 37.6726H81.748C83.7885 37.6726 85.3538 37.292 86.4439 36.531C87.5341 35.7699 88.0792 34.549 88.0792 32.8684C88.0792 31.2194 87.5341 30.0144 86.4439 29.2533C85.3538 28.4605 83.7885 28.0642 81.748 28.0642H72.5237V23.26H80.6578C82.5586 23.26 84.0121 22.8794 85.0184 22.1184C86.0526 21.3573 86.5697 20.2157 86.5697 18.6936C86.5697 17.1397 86.0526 15.9823 85.0184 15.2212C84.0121 14.4602 82.5586 14.0796 80.6578 14.0796H72.943V37.6726Z" fill="url(#paint2_linear_971_87)"/>
<path d="M101.066 42.5243V9.22788H113.142C115.741 9.22788 117.963 9.70354 119.808 10.6549C121.681 11.6062 123.121 12.9698 124.127 14.7456C125.133 16.5214 125.636 18.6302 125.636 21.0719C125.636 23.5136 125.133 25.6224 124.127 27.3982C123.121 29.1423 121.681 30.49 119.808 31.4414C117.963 32.361 115.741 32.8208 113.142 32.8208H104.085L106.517 30.0144V42.5243H101.066ZM120.269 42.5243L112.848 30.4425H118.676L126.139 42.5243H120.269ZM106.517 30.6803L104.085 27.7312H112.89C115.294 27.7312 117.097 27.1445 118.299 25.9712C119.529 24.7979 120.144 23.1648 120.144 21.0719C120.144 18.9473 119.529 17.3142 118.299 16.1726C117.097 15.031 115.294 14.4602 112.89 14.4602H104.085L106.517 11.4159V30.6803Z" fill="url(#paint3_linear_971_87)"/>
<path d="M138.443 23.0697H153.034V28.1593H138.443V23.0697ZM138.862 37.3396H155.424V42.5243H133.412V9.22788H154.837V14.4126H138.862V37.3396Z" fill="url(#paint4_linear_971_87)"/>
<path d="M176.442 42.5243V9.22788H180.929L199.335 34.8661H197.113V9.22788H202.522V42.5243H198.035L179.629 16.8861H181.851V42.5243H176.442Z" fill="url(#paint5_linear_971_87)"/>
<path d="M225.816 43C223.524 43 221.413 42.5719 219.485 41.7157C217.556 40.8595 215.879 39.6704 214.453 38.1482C213.028 36.5944 211.924 34.7869 211.141 32.7257C210.358 30.6327 209.967 28.3496 209.967 25.8761C209.967 23.4027 210.358 21.1353 211.141 19.0741C211.924 16.9812 213.028 15.1737 214.453 13.6515C215.879 12.0977 217.556 10.8927 219.485 10.0365C221.413 9.18031 223.51 8.75221 225.774 8.75221C228.066 8.75221 230.163 9.18031 232.063 10.0365C233.992 10.8927 235.669 12.0977 237.095 13.6515C238.52 15.1737 239.624 16.9812 240.407 19.0741C241.19 21.1353 241.581 23.4027 241.581 25.8761C241.581 28.3496 241.19 30.6327 240.407 32.7257C239.624 34.8186 238.52 36.6261 237.095 38.1482C235.669 39.6704 233.992 40.8595 232.063 41.7157C230.163 42.5719 228.08 43 225.816 43ZM225.774 37.5774C227.256 37.5774 228.625 37.292 229.883 36.7212C231.141 36.1504 232.231 35.3418 233.153 34.2954C234.076 33.2172 234.789 31.9805 235.292 30.5852C235.823 29.1582 236.088 27.5885 236.088 25.8761C236.088 24.1637 235.823 22.6099 235.292 21.2146C234.789 19.7876 234.076 18.5509 233.153 17.5044C232.231 16.4263 231.141 15.6018 229.883 15.031C228.625 14.4602 227.256 14.1748 225.774 14.1748C224.293 14.1748 222.923 14.4602 221.665 15.031C220.435 15.6018 219.345 16.4263 218.395 17.5044C217.472 18.5509 216.745 19.7876 216.214 21.2146C215.711 22.6099 215.46 24.1637 215.46 25.8761C215.46 27.5568 215.711 29.1106 216.214 30.5376C216.745 31.9646 217.472 33.2172 218.395 34.2954C219.317 35.3418 220.407 36.1504 221.665 36.7212C222.923 37.292 224.293 37.5774 225.774 37.5774ZM222.252 6.51659L227.912 0H234.076L226.78 6.51659H222.252Z" fill="url(#paint6_linear_971_87)"/>
<path d="M258.134 43C255.842 43 253.648 42.6353 251.551 41.906C249.455 41.1449 247.792 40.1777 246.562 39.0044L248.449 34.2002C249.623 35.2467 251.076 36.1187 252.809 36.8164C254.542 37.514 256.317 37.8628 258.134 37.8628C259.672 37.8628 260.915 37.6726 261.866 37.292C262.816 36.9115 263.515 36.4041 263.962 35.7699C264.41 35.104 264.633 34.3588 264.633 33.5343C264.633 32.5195 264.312 31.7109 263.669 31.1084C263.026 30.4742 262.187 29.9827 261.153 29.6339C260.147 29.2533 259.015 28.9045 257.757 28.5874C256.527 28.2703 255.283 27.9056 254.025 27.4934C252.795 27.0494 251.663 26.4945 250.629 25.8285C249.623 25.1309 248.798 24.2113 248.155 23.0697C247.512 21.9281 247.191 20.4694 247.191 18.6936C247.191 16.8861 247.61 15.2371 248.449 13.7467C249.315 12.2246 250.615 11.0195 252.348 10.1316C254.109 9.21202 256.331 8.75221 259.015 8.75221C260.776 8.75221 262.523 9.0059 264.256 9.51328C265.989 10.0206 267.498 10.75 268.784 11.7013L267.065 16.5055C265.751 15.6176 264.396 14.9676 262.998 14.5553C261.6 14.1114 260.259 13.8894 258.973 13.8894C257.463 13.8894 256.234 14.0955 255.283 14.5077C254.361 14.92 253.676 15.4591 253.229 16.125C252.809 16.7909 252.6 17.552 252.6 18.4082C252.6 19.4229 252.907 20.2474 253.522 20.8816C254.165 21.4841 254.99 21.9598 255.996 22.3086C257.03 22.6574 258.176 23.0063 259.434 23.3551C260.692 23.6722 261.936 24.0369 263.166 24.4491C264.424 24.8614 265.556 25.4004 266.562 26.0664C267.596 26.7323 268.421 27.6361 269.036 28.7777C269.679 29.9192 270 31.3621 270 33.1062C270 34.882 269.567 36.531 268.7 38.0531C267.862 39.5435 266.562 40.7485 264.801 41.6681C263.04 42.556 260.818 43 258.134 43Z" fill="url(#paint7_linear_971_87)"/>
<defs>
<linearGradient id="paint0_linear_971_87" x1="-1.46722" y1="25.1825" x2="271.941" y2="25.1825" gradientUnits="userSpaceOnUse">
<stop stop-color="#F57E01"/>
<stop offset="1" stop-color="#F69B01"/>
</linearGradient>
<linearGradient id="paint1_linear_971_87" x1="-1.46722" y1="25.1825" x2="271.941" y2="25.1825" gradientUnits="userSpaceOnUse">
<stop stop-color="#F57E01"/>
<stop offset="1" stop-color="#F69B01"/>
</linearGradient>
<linearGradient id="paint2_linear_971_87" x1="-1.46722" y1="25.1825" x2="271.941" y2="25.1825" gradientUnits="userSpaceOnUse">
<stop stop-color="#F57E01"/>
<stop offset="1" stop-color="#F69B01"/>
</linearGradient>
<linearGradient id="paint3_linear_971_87" x1="-1.46722" y1="25.1825" x2="271.941" y2="25.1825" gradientUnits="userSpaceOnUse">
<stop stop-color="#F57E01"/>
<stop offset="1" stop-color="#F69B01"/>
</linearGradient>
<linearGradient id="paint4_linear_971_87" x1="-1.46722" y1="25.1825" x2="271.941" y2="25.1825" gradientUnits="userSpaceOnUse">
<stop stop-color="#F57E01"/>
<stop offset="1" stop-color="#F69B01"/>
</linearGradient>
<linearGradient id="paint5_linear_971_87" x1="-1.46722" y1="25.1825" x2="271.941" y2="25.1825" gradientUnits="userSpaceOnUse">
<stop stop-color="#F57E01"/>
<stop offset="1" stop-color="#F69B01"/>
</linearGradient>
<linearGradient id="paint6_linear_971_87" x1="-1.46722" y1="25.1825" x2="271.941" y2="25.1825" gradientUnits="userSpaceOnUse">
<stop stop-color="#F57E01"/>
<stop offset="1" stop-color="#F69B01"/>
</linearGradient>
<linearGradient id="paint7_linear_971_87" x1="-1.46722" y1="25.1825" x2="271.941" y2="25.1825" gradientUnits="userSpaceOnUse">
<stop stop-color="#F57E01"/>
<stop offset="1" stop-color="#F69B01"/>
</linearGradient>
</defs>
</svg>
